/* XPM */
static const char * cat_emulators_xpm[] = {
"22 22 168 2",
"  	c None",
". 	c #888A85",
"+ 	c #F7F8F7",
"@ 	c #70726D",
"# 	c #F9F9F8",
"$ 	c #ECEEEB",
"% 	c #E6E8E4",
"& 	c #DFE1DD",
"* 	c #DDDFDB",
"= 	c #D8D9D5",
"- 	c #D1D4CF",
"; 	c #D5D8D3",
"> 	c #E6E7E5",
", 	c #ECEDEA",
"' 	c #446EA0",
") 	c #204A87",
"! 	c #426D9F",
"~ 	c #CDCFCA",
"{ 	c #6A7583",
"] 	c #6B7888",
"^ 	c #6C798D",
"/ 	c #6E7D90",
"( 	c #989F92",
"_ 	c #6F7F95",
": 	c #6F7F96",
"< 	c #6E7D92",
"[ 	c #6E7C8F",
"} 	c #6C7A8D",
"| 	c #C1C4BE",
"1 	c #6C798B",
"2 	c #6F7E95",
"3 	c #99A297",
"4 	c #B8BB97",
"5 	c #9BA39A",
"6 	c #72859E",
"7 	c #72849E",
"8 	c #72849D",
"9 	c #70839B",
"0 	c #6F8099",
"a 	c #6E7E95",
"b 	c #B7BAB4",
"c 	c #6F7E93",
"d 	c #708098",
"e 	c #70839D",
"f 	c #CDCC97",
"g 	c #FEFADE",
"h 	c #B9BE9B",
"i 	c #738AA6",
"j 	c #748AA6",
"k 	c #7389A5",
"l 	c #7388A3",
"m 	c #72879F",
"n 	c #495E7B",
"o 	c #72859F",
"p 	c #9CA79E",
"q 	c #E5DF96",
"r 	c #FFFFFF",
"s 	c #DCD998",
"t 	c #778FAD",
"u 	c #7790AD",
"v 	c #9EADA5",
"w 	c #758EAC",
"x 	c #738BA7",
"y 	c #536F91",
"z 	c #2B4A73",
"A 	c #193963",
"B 	c #4D6487",
"C 	c #5F7798",
"D 	c #CACB94",
"E 	c #FEFADD",
"F 	c #ECE596",
"G 	c #9AABA3",
"H 	c #90A49C",
"I 	c #A8B389",
"J 	c #778D84",
"K 	c #234E7F",
"L 	c #214979",
"M 	c #1D4573",
"N 	c #1D3F6C",
"O 	c #1D416E",
"P 	c #1F4776",
"Q 	c #B0B25E",
"R 	c #C8C45C",
"S 	c #FEF8CA",
"T 	c #92A26D",
"U 	c #C8C55E",
"V 	c #B2B663",
"W 	c #658176",
"X 	c #637F73",
"Y 	c #637A6F",
"Z 	c #60776A",
"` 	c #B4BAAE",
" .	c #C6C158",
"..	c #C7C25A",
"+.	c #E2D756",
"@.	c #93A26E",
"#.	c #B4B966",
"$.	c #FDF3A5",
"%.	c #D8D15B",
"&.	c #B3B764",
"*.	c #B1B461",
"=.	c #424904",
"-.	c #B3B965",
";.	c #6A8A80",
">.	c #CAC961",
",.	c #6C8D84",
"'.	c #444D11",
").	c #C7C35B",
"!.	c #C8C55D",
"~.	c #C9C75E",
"{.	c #6A8A81",
"].	c #6C8D85",
"^.	c #B6BD6A",
"/.	c #CBCB63",
"(.	c #336FA2",
"_.	c #B5BC69",
":.	c #B3BA67",
"<.	c #B3B765",
"[.	c #B2B563",
"}.	c #B6B9B3",
"|.	c #919E69",
"1.	c #94A571",
"2.	c #2F669A",
"3.	c #316CA0",
"4.	c #99AD79",
"5.	c #9AAF7B",
"6.	c #3775A7",
"7.	c #3571A5",
"8.	c #316BA0",
"9.	c #2B6094",
"0.	c #27598C",
"a.	c #255588",
"b.	c #295C8F",
"c.	c #2D6397",
"d.	c #316B9E",
"e.	c #336FA3",
"f.	c #71978E",
"g.	c #749C92",
"h.	c #3B79AD",
"i.	c #3775A8",
"j.	c #356FA3",
"k.	c #2F699D",
"l.	c #2D6396",
"m.	c #295C8E",
"n.	c #275588",
"o.	c #295E91",
"p.	c #2F6498",
"q.	c #3572A5",
"r.	c #3B78AC",
"s.	c #9DB37F",
"t.	c #3F81B5",
"u.	c #3B7DB1",
"v.	c #3978AB",
"w.	c #336B9F",
"x.	c #2D6398",
"y.	c #295A8F",
"z.	c #C0C3BD",
"A.	c #EBEDEA",
"B.	c #C4C7C1",
"C.	c #F7F8F6",
"D.	c #E2E4E0",
"E.	c #D4D7D2",
"F.	c #C8CBC5",
"G.	c #C2C4BF",
"H.	c #BCBFB9",
"I.	c #C2C5BF",
"J.	c #C6C9C3",
"K.	c #6C6E69",
"    . . . . . . . . . . . . . . . . . .     ",
"  . + + + + + + + + + + + + + + + + + + @   ",
". + # $ % & & & & & & & & & * = - - ; > + . ",
". + , ' ) ) ) ) ) ) ) ) ) ) ) ) ) ) ! ~ + . ",
". + % ) { ] ^ / ( _ : : : _ < [ } ] ) | + . ",
". + & ) 1 / 2 3 4 5 6 6 7 8 9 0 a / ) b + . ",
". + & ) c d e f g h i j i k l m e n ) b + . ",
". + & ) 9 o p q r s t u v w x y z A ) b + . ",
". + & ) B C D E F E G H I J K L M N ) b + . ",
". + & ) O P Q r R S T U r V W X Y Z ) ` + . ",
". + & )  ...r +.@.S #.$.%.r &.V *.Q ) ` + . ",
". + & =.r r r -.;.S >.r ,.S r r r r ) ` + . ",
". + & '.).!.~.{.].^.r /.(.^._.:.<.[.) }.+ . ",
". + & ) |.T 1.2.3.4.r 5.6.7.8.2.9.0.) }.+ . ",
". + & ) a.b.c.d.e.f.$.g.h.i.j.k.l.m.) }.+ . ",
". + % ) n.o.p.8.q.r.s.t.u.v.7.w.x.y.) z.+ . ",
". + A.' ) ) ) ) ) ) ) ) ) ) ) ) ) ) ' B.+ . ",
". + C.D.E.F.G.H.H.H.H.H.H.H.H.H.H.I.B.J.+ . ",
"  . + + + + + + + + + + + + + + + + + + K.  ",
"    . . . . . . . . . . . . . . . . . .     ",
"                                            ",
"                                            "};
