/* XPM */
static const char * cat_games_xpm[] = {
"22 22 141 2",
"  	c None",
". 	c #898B86",
"+ 	c #8C8E8A",
"@ 	c #8D8F8B",
"# 	c #9B9C99",
"$ 	c #BFC0BE",
"% 	c #D5D6D4",
"& 	c #959792",
"* 	c #8C8E89",
"= 	c #8E8F8B",
"- 	c #898B87",
"; 	c #9C9D99",
"> 	c #C2C4C2",
", 	c #D2D2D1",
"' 	c #A4A6A2",
") 	c #91938E",
"! 	c #90928E",
"~ 	c #90928D",
"{ 	c #8F918C",
"] 	c #8D8F8A",
"^ 	c #8A8C87",
"/ 	c #B5B7B4",
"( 	c #E1E1E0",
"_ 	c #F3F3F3",
": 	c #FBFBFB",
"< 	c #FDFDFD",
"[ 	c #FAFAFA",
"} 	c #B1B2AF",
"| 	c #DDDEDC",
"1 	c #FCFCFC",
"2 	c #ECEDEC",
"3 	c #FEFEFE",
"4 	c #F8F8F8",
"5 	c #F5F5F5",
"6 	c #F1F1F1",
"7 	c #EDEDED",
"8 	c #ECECEC",
"9 	c #A0A19E",
"0 	c #F6F6F5",
"a 	c #F7F7F7",
"b 	c #F2F2F2",
"c 	c #F0F0F0",
"d 	c #EFEFEF",
"e 	c #8B8D88",
"f 	c #838383",
"g 	c #7F7F7F",
"h 	c #E7E7E7",
"i 	c #A1A29F",
"j 	c #F6F6F6",
"k 	c #EEEEEE",
"l 	c #8E908B",
"m 	c #C0C0C0",
"n 	c #030303",
"o 	c #000000",
"p 	c #404040",
"q 	c #A1A39F",
"r 	c #8B8C88",
"s 	c #DBDBDB",
"t 	c #707070",
"u 	c #171717",
"v 	c #F4F4F4",
"w 	c #EAEAEA",
"x 	c #BBBCB9",
"y 	c #D8D8D8",
"z 	c #868686",
"A 	c #464646",
"B 	c #E3E3E3",
"C 	c #A2A3A0",
"D 	c #ECDCDC",
"E 	c #E9CFCF",
"F 	c #E8CECE",
"G 	c #E8D4D4",
"H 	c #EBEBEB",
"I 	c #939490",
"J 	c #969696",
"K 	c #E8E8E8",
"L 	c #A2A4A0",
"M 	c #E9D0D0",
"N 	c #DC5757",
"O 	c #DB4E4E",
"P 	c #DD6464",
"Q 	c #D94545",
"R 	c #D84141",
"S 	c #E3ABAB",
"T 	c #E9E9E9",
"U 	c #A3A4A1",
"V 	c #F3F3F2",
"W 	c #E4A0A0",
"X 	c #DB4B4B",
"Y 	c #DA4646",
"Z 	c #D94242",
"` 	c #D83E3E",
" .	c #D73A3A",
"..	c #DB6767",
"+.	c #F1F1F0",
"@.	c #A4A5A1",
"#.	c #E7CBCB",
"$.	c #D94343",
"%.	c #D83F3F",
"&.	c #D63333",
"*.	c #D32323",
"=.	c #DD9696",
"-.	c #E5E5E5",
";.	c #8A8B87",
">.	c #DCDEDC",
",.	c #DC7070",
"'.	c #D11C1C",
").	c #CE0B0B",
"!.	c #CC0101",
"~.	c #D13B3B",
"{.	c #E1DCDC",
"].	c #E2E2E2",
"^.	c #E4E4E4",
"/.	c #B2B3AF",
"(.	c #F9F9F9",
"_.	c #E3E1E1",
":.	c #D56161",
"<.	c #CC0000",
"[.	c #D23D3D",
"}.	c #E1DADA",
"|.	c #E1E1E1",
"1.	c #DA9494",
"2.	c #E0DADA",
"3.	c #A3A5A1",
"4.	c #EFEFEE",
"5.	c #EAEAE9",
"6.	c #E0E0E0",
"7.	c #D1D2D0",
"8.	c #AFB1AE",
"9.	c #AAABA8",
"0.	c #EDEDEC",
"a.	c #888A86",
"b.	c #8D8E8A",
"c.	c #CACBC9",
"d.	c #9C9E9A",
"e.	c #8A8C88",
"f.	c #D8D8D7",
"g.	c #FFFFFF",
"h.	c #888985",
"i.	c #888A85",
"j.	c #898A86",
"                        .                   ",
"              + @ . # $ % &                 ",
"    * = - ; > , ' ) ! ~ { ] ^ ^ ^ . . . =   ",
"] / ( _ : < [ } | 1 1 1 1 < < < < 1 1 1 2 ] ",
"^ 3 4 5 6 7 8 9 0 a _ _ b b 6 6 c c d c : e ",
"* : _ c f g h i j 5 6 c c c d d k 7 7 k : e ",
"l c j m n o p q j 5 c c d d k k 7 8 8 k : r ",
"  s 4 t o o u q 5 v d d k k k 8 8 8 w 8 : ^ ",
"  x : y z A B C v v k k D E 8 F G w w H [ ^ ",
"  I < c d J K L v _ k M N O P Q R S T w : ^ ",
"  ] : _ c d k U V _ 7 W X Y Z `  ...h T : ^ ",
"  l +.j c d k @.b b 8 #.$.%. .&.*.=.-.K : ;.",
"    >.4 k 8 w C c c T w ,.'.).!.~.{.].^.: . ",
"    /.(.-.-.-.L d 7 ^.B _.:.<.[.}.].|.B : . ",
"    { < -.-.-.U d 8 B B B ].1.2.].|.|.B : . ",
"    ] (.T -.-.3.4.8 B B ].].].|.|.|.|.].: . ",
"    l 5.d -.-.@.7 8 B ].].].|.|.|.|.6.].: . ",
"      7._ -.-.' 7 8 ].].].|.|.|.|.6.6.].: . ",
"      8.: j 1 9.0.8 ].].|.].].|.|.|.].B 1 a.",
"      b.c.$ d.e.f.g.3 3 3 3 3 3 < < 1 1 w ^ ",
"                h.i.i.i.i.i.i.i.i.i.i.j..   ",
"                                            "};
