/* XPM */
static const char * cat_hardware_xpm[] = {
"22 22 64 1",
" 	c None",
".	c #2A5700",
"+	c #8AE234",
"@	c #788600",
"#	c #6E7729",
"$	c #555B38",
"%	c #8E9A23",
"&	c #53593A",
"*	c #535939",
"=	c #6B7526",
"-	c #849115",
";	c #778500",
">	c #83C020",
",	c #54593F",
"'	c #E0E1DC",
")	c #525741",
"!	c #525839",
"~	c #CFD0CD",
"{	c #585C41",
"]	c #768402",
"^	c #5F6825",
"/	c #4F543E",
"(	c #828578",
"_	c #808276",
":	c #7F8275",
"<	c #808375",
"[	c #7D8072",
"}	c #7E8174",
"|	c #4F5636",
"1	c #636E1A",
"2	c #4F543D",
"3	c #DBDCD8",
"4	c #BCBDB9",
"5	c #BFC0BA",
"6	c #ABACA8",
"7	c #555753",
"8	c #4F553C",
"9	c #8C981F",
"0	c #859215",
"a	c #878A7C",
"b	c #898C7C",
"c	c #51563A",
"d	c #798709",
"e	c #788405",
"f	c #849117",
"g	c #8A961D",
"h	c #849012",
"i	c #7A8804",
"j	c #889518",
"k	c #7B8905",
"l	c #89951A",
"m	c #839113",
"n	c #BEB400",
"o	c #828D04",
"p	c #EDD400",
"q	c #7D8A08",
"r	c #879104",
"s	c #FCE94F",
"t	c #7D8909",
"u	c #7D8A06",
"v	c #85CD28",
"w	c #8EB41D",
"x	c #275200",
"y	c #264E00",
"                      ",
"                      ",
"                      ",
" ...................  ",
" .+++++++++++++++++.  ",
" .+@@#$%&%*=%%-;;;>.  ",
" .+@@,')'!~{@]%-;;>.  ",
" .+^/(_:<[}(|1;%-;>.  ",
" .+23(44444(5)%%%;>.  ",
" .+^/(67777(/1@@%@>.  ",
" .+8'(((((((5)9%0@>.  ",
" .+^//a/b/b/c1@9@@>.  ",
" .+@@@/d/e/f0g@@h@>.  ",
" .+iijkk%k%kk9kklk>.  ",
" .+mnn@nnknnknnono>.  ",
" .+@pp@ppqppkpprpr>.  ",
" .+@ss@sstsskssusu>.  ",
" .v>ss>ss>ss>sswsw>.  ",
" x.................y  ",
"                      ",
"                      ",
"                      "};
