/* XPM */
static const char * cat_development_xpm[] = {
"22 22 303 2",
"  	c None",
". 	c #C4A61B",
"+ 	c #C4A419",
"@ 	c #C5A30C",
"# 	c #C6A40C",
"$ 	c #C7A610",
"% 	c #C5A30B",
"& 	c #C4A414",
"* 	c #C4A71E",
"= 	c #C4A417",
"- 	c #F7F2E1",
"; 	c #F3EDD4",
"> 	c #F9F5DB",
", 	c #FBFAE7",
"' 	c #FAF7E9",
") 	c #F9F7EC",
"! 	c #EFE7C1",
"~ 	c #C5A40C",
"{ 	c #C6A406",
"] 	c #D9C257",
"^ 	c #F9F5E5",
"/ 	c #F8EFA2",
"( 	c #FAF1A4",
"_ 	c #FAF1A2",
": 	c #F9F09E",
"< 	c #F3EAA1",
"[ 	c #E7D779",
"} 	c #DDCA72",
"| 	c #C6A408",
"1 	c #C8A70D",
"2 	c #D0B333",
"3 	c #EDE1A5",
"4 	c #FDFBE9",
"5 	c #FBF3B0",
"6 	c #FCF4B1",
"7 	c #FDF5B1",
"8 	c #FCF4AC",
"9 	c #FBF2A2",
"0 	c #E9DA7F",
"a 	c #F4EDC2",
"b 	c #EFE5B8",
"c 	c #C5A205",
"d 	c #C7A60A",
"e 	c #C7A407",
"f 	c #F9F4CF",
"g 	c #FCF8D9",
"h 	c #FDFBE7",
"i 	c #FBF4B9",
"j 	c #FCF4B6",
"k 	c #FCF4B4",
"l 	c #FCF4AD",
"m 	c #FAF2A4",
"n 	c #E8D875",
"o 	c #F3E887",
"p 	c #F8F0B2",
"q 	c #F7F1CF",
"r 	c #D6BE52",
"s 	c #C6A308",
"t 	c #F7F1C8",
"u 	c #F9F3C3",
"v 	c #F8F1B4",
"w 	c #FBF7D5",
"x 	c #FBF5C4",
"y 	c #FAF3B5",
"z 	c #F9F2AF",
"A 	c #F9F0A8",
"B 	c #F8EF9F",
"C 	c #E7D673",
"D 	c #F5EA8A",
"E 	c #F7EFA7",
"F 	c #FAF6D2",
"G 	c #EADD9C",
"H 	c #C7A40A",
"I 	c #C7A408",
"J 	c #E9DC9B",
"K 	c #F6F0B8",
"L 	c #F5EDA5",
"M 	c #F7F0B0",
"N 	c #F9F3C2",
"O 	c #FAF4C3",
"P 	c #F8F0AF",
"Q 	c #F7EFA8",
"R 	c #F7EDA0",
"S 	c #F5EB96",
"T 	c #EBDC79",
"U 	c #F3E782",
"V 	c #F8F0B3",
"W 	c #F5EB9F",
"X 	c #F5EDAD",
"Y 	c #E2D082",
"Z 	c #C5A202",
"` 	c #C4A20E",
" .	c #D7C054",
"..	c #F6F0C3",
"+.	c #F1E790",
"@.	c #F3EA9B",
"#.	c #F4ECA4",
"$.	c #F5EDA8",
"%.	c #F6EFB1",
"&.	c #F5ECA3",
"*.	c #F5EB9D",
"=.	c #F4EA95",
"-.	c #F0E588",
";.	c #F0E37F",
">.	c #F0E379",
",.	c #F5EEAB",
"'.	c #EDDF6C",
").	c #E9D952",
"!.	c #EFE6AA",
"~.	c #C7A409",
"{.	c #C4A208",
"].	c #E2D183",
"^.	c #F1E89F",
"/.	c #EEE383",
"(.	c #F0E58B",
"_.	c #F1E792",
":.	c #F2E896",
"<.	c #F2E892",
"[.	c #F1E68D",
"}.	c #F1E586",
"|.	c #EEE07B",
"1.	c #EEE174",
"2.	c #EDE070",
"3.	c #EEE37E",
"4.	c #E8D852",
"5.	c #E5D33E",
"6.	c #F0E79E",
"7.	c #D7BE53",
"8.	c #C5A30A",
"9.	c #F4EFD0",
"0.	c #E8DA68",
"a.	c #EADD71",
"b.	c #ECDF79",
"c.	c #EDE17E",
"d.	c #EEE281",
"e.	c #EEE27F",
"f.	c #EDE17B",
"g.	c #ECE074",
"h.	c #EBDC6B",
"i.	c #EADB64",
"j.	c #E8D856",
"k.	c #E5D447",
"l.	c #E1CF30",
"m.	c #E0CC2A",
"n.	c #E8DA66",
"o.	c #E9DEA8",
"p.	c #C4A209",
"q.	c #F6F2D1",
"r.	c #E5D555",
"s.	c #E6D75D",
"t.	c #E8D964",
"u.	c #E6D658",
"v.	c #E6D654",
"w.	c #E3D243",
"x.	c #E3D343",
"y.	c #E4D243",
"z.	c #E3D140",
"A.	c #E3D03B",
"B.	c #DFCC2A",
"C.	c #DECA26",
"D.	c #DECA24",
"E.	c #DDC921",
"F.	c #DCC81E",
"G.	c #DBC61A",
"H.	c #EDE29E",
"I.	c #C4A30A",
"J.	c #C5A308",
"K.	c #F5F0C9",
"L.	c #DCC92A",
"M.	c #DDC929",
"N.	c #DBC519",
"O.	c #DAC517",
"P.	c #ECE183",
"Q.	c #E9DB6E",
"R.	c #E6D860",
"S.	c #E5D452",
"T.	c #E2D143",
"U.	c #DFCD33",
"V.	c #DCC823",
"W.	c #C5B112",
"X.	c #D9C414",
"Y.	c #D8C311",
"Z.	c #D7C20E",
"`.	c #F4EFC3",
" +	c #C5A40D",
".+	c #F9F6E1",
"++	c #D4BD04",
"@+	c #D5BE05",
"#+	c #D5BF08",
"$+	c #D6C00A",
"%+	c #E2D14A",
"&+	c #D7C10D",
"*+	c #D7C10E",
"=+	c #D7C10C",
"-+	c #BFAB08",
";+	c #D6C009",
">+	c #D5BF07",
",+	c #D4BE05",
"'+	c #F3EDBD",
")+	c #C19F04",
"!+	c #C3A20A",
"~+	c #EEE5A9",
"{+	c #E7DA72",
"]+	c #D3BC01",
"^+	c #D3BC00",
"/+	c #DDCB38",
"(+	c #BEA900",
"_+	c #D4BE07",
":+	c #DFCE43",
"<+	c #F2EBBD",
"[+	c #BA9900",
"}+	c #C9B142",
"|+	c #E6D791",
"1+	c #F1E8A6",
"2+	c #E4D55D",
"3+	c #DBC92E",
"4+	c #BFAA00",
"5+	c #D6C00F",
"6+	c #E2D355",
"7+	c #E3D45B",
"8+	c #EFE6BB",
"9+	c #A58700",
"0+	c #967C08",
"a+	c #D8C360",
"b+	c #E1D356",
"c+	c #E7DA6D",
"d+	c #DECD40",
"e+	c #DBC82D",
"f+	c #DAC82B",
"g+	c #C7B313",
"h+	c #E1D04B",
"i+	c #E6D86B",
"j+	c #E5D867",
"k+	c #F8F4D8",
"l+	c #EADEAA",
"m+	c #CCB337",
"n+	c #F1E9B9",
"o+	c #E0D04A",
"p+	c #E0CF46",
"q+	c #E1D14E",
"r+	c #E2D356",
"s+	c #E1D24F",
"t+	c #E0CF48",
"u+	c #E4D55F",
"v+	c #E8DC76",
"w+	c #E9DC78",
"x+	c #E8DC77",
"y+	c #E8DB73",
"z+	c #F3ECB7",
"A+	c #F4EFD3",
"B+	c #C29F05",
"C+	c #AE9006",
"D+	c #D8C25F",
"E+	c #F2ECBB",
"F+	c #E9DE7F",
"G+	c #E2D252",
"H+	c #E3D45A",
"I+	c #E5D662",
"J+	c #E6D86A",
"K+	c #E7DA71",
"L+	c #E9DD7D",
"M+	c #EADE80",
"N+	c #EADF81",
"O+	c #EADE7F",
"P+	c #F7F3D1",
"Q+	c #F7F3D9",
"R+	c #D6BD4E",
"S+	c #886F00",
"T+	c #B99905",
"U+	c #D5BC4D",
"V+	c #F2EBC2",
"W+	c #F4EEC4",
"X+	c #ECE18D",
"Y+	c #E5D765",
"Z+	c #E7D96D",
"`+	c #E8DB75",
" @	c #EBE084",
".@	c #F0E9AB",
"+@	c #F8F4D6",
"@@	c #F9F7E2",
"#@	c #EEE4B7",
"$@	c #D6BC4D",
"%@	c #B09001",
"&@	c #A58800",
"*@	c #C19F06",
"=@	c #E0D085",
"-@	c #EADFAD",
";@	c #F2ECCE",
">@	c #F5F0D7",
",@	c #F7F3DC",
"'@	c #F7F3DD",
")@	c #F4F0D6",
"!@	c #F2ECCF",
"~@	c #E3D38B",
"{@	c #D5BE51",
"]@	c #C2A006",
"^@	c #A1860A",
"/@	c #A78A08",
"(@	c #AA8C08",
"_@	c #AC8E08",
":@	c #B09108",
"<@	c #9C8109",
"[@	c #9D830A",
"            . + @ # $ % & * .               ",
"            = - ; > , ' ) ! ~               ",
"          { ] ^ / ( _ : < [ } |             ",
"        1 2 3 4 5 6 7 8 9 0 a b c d         ",
"      e c f g h i j k l m n o p q r         ",
"      s t u v w x y z A B C D E F G H       ",
"    I J K L M N O P Q R S T U V W X Y Z     ",
"  `  ...+.@.#.$.%.&.*.=.-.;.>.,.'.).!.~.    ",
"  {.].^./.(._.:.:.<.[.}.|.1.2.3.4.5.6.7.`   ",
"  8.9.0.a.b.c.d.d.e.f.g.h.i.j.k.l.m.n.o.p.  ",
"  8.q.r.s.t.u.v.w.x.y.z.A.B.C.D.E.F.G.H.I.  ",
"  J.K.L.M.N.O.P.Q.R.S.T.U.V.W.O.X.Y.Z.`.{.  ",
"   +.+++@+#+$+%+&+*+*+*+&+=+-+;+>+,+#+'+)+  ",
"  !+~+{+]+^+^+/+^+^+^+^+^+^+(+^+^+_+:+<+[+  ",
"  }+|+1+2+_+^+3+^+^+^+^+^+^+4+^+5+6+7+8+9+  ",
"  0+a+b+c+d+e+f+^+^+^+^+^+^+g+h+i+j+k+l+    ",
"    m+n+o+p+q+r+r+s+o+t+u+v+w+x+y+z+A+B+    ",
"    C+D+E+F+G+H+I+J+K+x+L+M+N+O+P+Q+R+S+    ",
"      T+U+V+W+X+Y+Z+`+L+ @.@+@@@#@$@%@      ",
"        &@*@=@-@;@>@,@'@)@!@~@{@]@          ",
"              ^@/@(@_@:@/@<@[@              ",
"                                            "};
