/* XPM */
static const char * cat_multimedia_xpm[] = {
"22 22 159 2",
"  	c None",
". 	c #2F3436",
"+ 	c #34383A",
"@ 	c #434748",
"# 	c #5C5E5F",
"$ 	c #2E3335",
"% 	c #35393B",
"& 	c #454849",
"* 	c #4C4F51",
"= 	c #585A5A",
"- 	c #A2A2A2",
"; 	c #DCDCDC",
"> 	c #6C6C6C",
", 	c #191919",
"' 	c #353A3C",
") 	c #2F3435",
"! 	c #3A3E3F",
"~ 	c #4A4E4F",
"{ 	c #494C4D",
"] 	c #D2D2D2",
"^ 	c #D8D8D8",
"/ 	c #1F1F1F",
"( 	c #090909",
"_ 	c #C9C9C9",
": 	c #D0D0D0",
"< 	c #111111",
"[ 	c #3B4042",
"} 	c #323738",
"| 	c #404446",
"1 	c #505454",
"2 	c #767676",
"3 	c #8A8A8A",
"4 	c #E5E5E5",
"5 	c #999999",
"6 	c #0A0A0A",
"7 	c #616161",
"8 	c #DADADA",
"9 	c #8D8D8D",
"0 	c #050505",
"a 	c #656565",
"b 	c #A8AAAB",
"c 	c #868888",
"d 	c #414547",
"e 	c #404445",
"f 	c #3E4243",
"g 	c #737373",
"h 	c #5B5B5B",
"i 	c #020202",
"j 	c #9B9B9B",
"k 	c #E6E6E6",
"l 	c #2F2F2F",
"m 	c #0E0E0E",
"n 	c #C2C2C2",
"o 	c #A6A8A9",
"p 	c #4E5252",
"q 	c #393D3F",
"r 	c #383D3F",
"s 	c #424748",
"t 	c #C4C4C4",
"u 	c #B6B6B6",
"v 	c #9C9C9C",
"w 	c #333333",
"x 	c #E9E9E9",
"y 	c #9B9D9D",
"z 	c #575859",
"A 	c #3F4446",
"B 	c #B7B7B7",
"C 	c #A7A7A7",
"D 	c #7A7A7A",
"E 	c #2E3436",
"F 	c #2D3335",
"G 	c #585858",
"H 	c #B1B1B1",
"I 	c #A5A5A5",
"J 	c #666666",
"K 	c #6F6F6F",
"L 	c #A1A1A1",
"M 	c #B4B4B4",
"N 	c #949494",
"O 	c #707070",
"P 	c #7F7F7F",
"Q 	c #BABABA",
"R 	c #B3B3B3",
"S 	c #6D6D6D",
"T 	c #6B6B6B",
"U 	c #C1C1C1",
"V 	c #34393B",
"W 	c #717171",
"X 	c #757575",
"Y 	c #777777",
"Z 	c #808080",
"` 	c #505050",
" .	c #000000",
"..	c #3E3E3E",
"+.	c #FCFCFC",
"@.	c #EDEDED",
"#.	c #1A1A1A",
"$.	c #FDFDFD",
"%.	c #676767",
"&.	c #5E5E5E",
"*.	c #373C3D",
"=.	c #CACACA",
"-.	c #A3A3A3",
";.	c #3A3A3A",
">.	c #4F4F4F",
",.	c #E8E8E8",
"'.	c #434343",
").	c #AAAAAA",
"!.	c #F1F1F1",
"~.	c #BBBBBB",
"{.	c #E4E4E4",
"].	c #4B4B4B",
"^.	c #BFBFBF",
"/.	c #444748",
"(.	c #404444",
"_.	c #414445",
":.	c #434546",
"<.	c #414446",
"[.	c #404344",
"}.	c #3F4243",
"|.	c #3F4244",
"1.	c #3E4142",
"2.	c #606264",
"3.	c #5C5C5C",
"4.	c #9D9D9D",
"5.	c #F6F6F6",
"6.	c #595959",
"7.	c #575757",
"8.	c #9F9F9F",
"9.	c #555555",
"0.	c #545454",
"a.	c #535353",
"b.	c #525252",
"c.	c #5E6161",
"d.	c #6C6E6F",
"e.	c #5A5A5A",
"f.	c #F4F4F4",
"g.	c #797979",
"h.	c #515151",
"i.	c #6A6C6C",
"j.	c #727475",
"k.	c #5F5F5F",
"l.	c #C5C5C5",
"m.	c #F7F7F7",
"n.	c #6E6F6F",
"o.	c #787A7A",
"p.	c #9A9A9A",
"q.	c #818282",
"r.	c #565656",
"s.	c #7D7D7D",
"t.	c #898989",
"u.	c #747474",
"v.	c #7B7B7B",
"w.	c #888888",
"x.	c #4E4E4E",
"y.	c #878787",
"z.	c #868686",
"A.	c #848484",
"B.	c #828282",
"                              . + @ #       ",
"                    $ % & * = - ; > , '     ",
"          $ ) ! ~ { > ] ^ / ( _ : < , [     ",
"    } | 1 2 3 4 5 6 7 8 9 0 a b c d e f     ",
"  d : g h i j k l m n o p q r %             ",
"  s t u v w x y z @ A                       ",
"  ' B C t D E E F F F F F F F F F F F F E   ",
"  F G v H I a J K L M N O P Q R S T Q U V   ",
"  F Q W X Y Z `  ...+.@.#. .B $.%. .&.$.*.  ",
"  F =.-.;.>.n ,.J '.).!.~.'.G {.{.7 ].^.+   ",
"  E E /.(._.:.:.<.<._._.(.[.}.|.}.1.1.q E   ",
"    E 2.h 3.4.3.5.v 6.G 7.8.9.0.8.a.b.c.E   ",
"    E d.e.%.$.v f.~.g.G 7.8.G 9.8.b.h.i.E   ",
"    E j.k.8.l.m.l.; 8.l.l.8.8.l.8.6.h.n.E   ",
"    E o.6.h $.3.h H h 3.I p.Q {.J 0.` 2 E   ",
"    E q.r.8.8.8.8.8.8.8.l.l.8.$.8.h.` s.E   ",
"    E t.9.9.9.9.9.9.0.0.a.a.u.h.h.` >.v.E   ",
"    E w.a.0.0.0.0.a.a.a.b.b.h.` ` >.x.D E   ",
"    E 3 w.w.w.y.y.y.y.z.z.z.A.A.A.B.B.g.E   ",
"    E E E E E E E E E E E E E E E E E E E   ",
"                                            ",
"                                            "};
