/* XPM */
static const char * harddisk_xpm[] = {
"16 16 64 1",
" 	c None",
".	c #6E706B",
"+	c #FFFFFF",
"@	c #F4F4F4",
"#	c #FDFDFD",
"$	c #EEEEEE",
"%	c #EDEDED",
"&	c #EDEEEE",
"*	c #EEEDED",
"=	c #EDEEED",
"-	c #EDEDEE",
";	c #F3F4F3",
">	c #FCFBFC",
",	c #EBECEC",
"'	c #EBEBEB",
")	c #ECEBEB",
"!	c #EBECEB",
"~	c #ECECEC",
"{	c #EBEBEC",
"]	c #ECEBEC",
"^	c #F3F3F3",
"/	c #FAFAFA",
"(	c #E9E9EA",
"_	c #EAEAEA",
":	c #EAEAE9",
"<	c #E9EAEA",
"[	c #EAE9EA",
"}	c #F2F2F2",
"|	c #F9F9F9",
"1	c #E4E4E4",
"2	c #F1F1F1",
"3	c #F7F7F7",
"4	c #E3E3E3",
"5	c #F0F0F0",
"6	c #FCFCFC",
"7	c #FEFEFE",
"8	c #CECECE",
"9	c #C9C9C9",
"0	c #C5C5C5",
"a	c #D6D6D6",
"b	c #9F9F9F",
"c	c #AFAFAF",
"d	c #BCBCBC",
"e	c #C4C4C4",
"f	c #C8C8C8",
"g	c #D0D0D0",
"h	c #A9A9A9",
"i	c #D2D2D2",
"j	c #B9B9B9",
"k	c #CACACA",
"l	c #CDCDCD",
"m	c #C3C3C3",
"n	c #AAAAA9",
"o	c #B4B4B4",
"p	c #C2C2C2",
"q	c #CBCBCB",
"r	c #A8A7A8",
"s	c #D1D1D1",
"t	c #A8A7A7",
"u	c #B7B6B6",
"v	c #DDDDDD",
"w	c #DCDCDC",
"x	c #D5D5D5",
"y	c #CFCFCF",
"                ",
"................",
".+++++++++++++@.",
".#$%&%%%%*=-&=;.",
".>,,')!!~'){]~^.",
"./(___:<_(_[_[}.",
".|/1111111111@2.",
".|$/11111111/$2.",
".34$//5445/6$45.",
".7+++++++@@''45.",
".8999909900000a.",
".80bcdefghihijk.",
".lmnopefqrstsuk.",
".vwwwxxyyyyyyyk.",
"................",
"                "};
