/* XPM */
static const char * harddisk_full_xpm[] = {
"16 16 98 2",
"  	c None",
". 	c #850000",
"+ 	c #6E706B",
"@ 	c #754744",
"# 	c #B12121",
"$ 	c #A71818",
"% 	c #FFFFFF",
"& 	c #F6F0F0",
"* 	c #AB3A3A",
"= 	c #D78A8A",
"- 	c #F4F4F4",
"; 	c #FBFBFB",
"> 	c #BE8A8A",
", 	c #BF3B3B",
"' 	c #847070",
") 	c #BE8989",
"! 	c #ECEBEB",
"~ 	c #EEEDED",
"{ 	c #EDEEED",
"] 	c #EDEDEE",
"^ 	c #EDEEEE",
"/ 	c #F3F4F3",
"( 	c #F1E7E8",
"_ 	c #A52E2E",
": 	c #DB8B8B",
"< 	c #848484",
"[ 	c #E2D9D9",
"} 	c #EBEBEB",
"| 	c #EBEBEC",
"1 	c #ECEBEC",
"2 	c #ECECEC",
"3 	c #F3F3F3",
"4 	c #C38B8B",
"5 	c #C03232",
"6 	c #E9D9D9",
"7 	c #949494",
"8 	c #BB8282",
"9 	c #E9E9EA",
"0 	c #EAEAEA",
"a 	c #EAE9EA",
"b 	c #F2F2F2",
"c 	c #6F615D",
"d 	c #AC3737",
"e 	c #E08787",
"f 	c #ECEAEA",
"g 	c #C6C6C6",
"h 	c #A83333",
"i 	c #D6C7C7",
"j 	c #E4E4E4",
"k 	c #F1F1F1",
"l 	c #7A3936",
"m 	c #C32929",
"n 	c #EEDCDC",
"o 	c #EEEEEE",
"p 	c #8A8A8A",
"q 	c #B77575",
"r 	c #FAFAFA",
"s 	c #960808",
"t 	c #DA5454",
"u 	c #EAB5B5",
"v 	c #E9B4B4",
"w 	c #DDA7A7",
"x 	c #A01212",
"y 	c #FCFCFC",
"z 	c #E3E3E3",
"A 	c #F0F0F0",
"B 	c #901211",
"C 	c #B10000",
"D 	c #B40000",
"E 	c #A52727",
"F 	c #CECECE",
"G 	c #C9C9C9",
"H 	c #C5C5C5",
"I 	c #D6D6D6",
"J 	c #9F9F9F",
"K 	c #AFAFAF",
"L 	c #BCBCBC",
"M 	c #C4C4C4",
"N 	c #C8C8C8",
"O 	c #D0D0D0",
"P 	c #A9A9A9",
"Q 	c #D2D2D2",
"R 	c #B9B9B9",
"S 	c #CACACA",
"T 	c #CDCDCD",
"U 	c #C3C3C3",
"V 	c #AAAAA9",
"W 	c #B4B4B4",
"X 	c #C2C2C2",
"Y 	c #CBCBCB",
"Z 	c #A8A7A8",
"` 	c #D1D1D1",
" .	c #A8A7A7",
"..	c #B7B6B6",
"+.	c #DDDDDD",
"@.	c #DCDCDC",
"#.	c #D5D5D5",
"$.	c #CFCFCF",
"        . .                     ",
"+ + + @ # $ @ + + + + + + + + + ",
"+ % & * = = * & % % % % % % - + ",
"+ ; > , ' ' , ) ! ~ { ] ^ { / + ",
"+ ( _ : < < : _ [ } ! | 1 2 3 + ",
"+ 4 5 6 7 7 6 5 8 9 0 a 0 a b + ",
"c d e f g g f e h i j j j - k + ",
"l m n o p p o n m q j j r o k + ",
"s t u v w w v u t x r y o z A + ",
"B C D D D D D D C E - } } z A + ",
"+ F G G G G H G G H H H H H I + ",
"+ F H J K L M N O P Q P Q R S + ",
"+ T U V W X M N Y Z `  .` ..S + ",
"+ +.@.@.@.#.#.$.$.$.$.$.$.$.S + ",
"+ + + + + + + + + + + + + + + + ",
"                                "};
