/* XPM */
static const char * pkg_install_auto_xpm[] = {
"32 32 290 2",
"  	c None",
". 	c #1F4B8A",
"+ 	c #214C89",
"@ 	c #214C8A",
"# 	c #214D8A",
"$ 	c #204A88",
"% 	c #204B88",
"& 	c #2B558F",
"* 	c #5B80AF",
"= 	c #7998C0",
"- 	c #89A6C9",
"; 	c #85A2C6",
"> 	c #698AB5",
", 	c #355D95",
"' 	c #1F4C89",
") 	c #5377A7",
"! 	c #8AA5CA",
"~ 	c #8BA7CB",
"{ 	c #90ABCE",
"] 	c #93ADCE",
"^ 	c #96AFD0",
"/ 	c #98B1D1",
"( 	c #99B2D1",
"_ 	c #6C8CB6",
": 	c #234E89",
"< 	c #1F4987",
"[ 	c #5B7CAA",
"} 	c #5B7CAB",
"| 	c #41669C",
"1 	c #446BA0",
"2 	c #6283B2",
"3 	c #90ABCD",
"4 	c #93ADCF",
"5 	c #8CA7CC",
"6 	c #8AA6CB",
"7 	c #94ADCF",
"8 	c #7C99C1",
"9 	c #325A91",
"0 	c #2D558F",
"a 	c #1F4C87",
"b 	c #214C88",
"c 	c #315891",
"d 	c #86A2C7",
"e 	c #8DA9CC",
"f 	c #84A1C8",
"g 	c #809FC6",
"h 	c #6587B3",
"i 	c #204B8B",
"j 	c #224C88",
"k 	c #325C93",
"l 	c #7F9EC6",
"m 	c #7B9BC4",
"n 	c #7A9AC3",
"o 	c #91ACCE",
"p 	c #305991",
"q 	c #1E4A86",
"r 	c #204A8A",
"s 	c #6A8BB7",
"t 	c #83A1C8",
"u 	c #7697C2",
"v 	c #7395C1",
"w 	c #86A3C9",
"x 	c #6183B1",
"y 	c #1F4A87",
"z 	c #545454",
"A 	c #595959",
"B 	c #5C5C5C",
"C 	c #4D5766",
"D 	c #446798",
"E 	c #89A5CB",
"F 	c #7193BF",
"G 	c #6D90BE",
"H 	c #7797C2",
"I 	c #7F9DC4",
"J 	c #284E83",
"K 	c #5B5B5B",
"L 	c #585858",
"M 	c #535353",
"N 	c #AFAFAF",
"O 	c #FCFCFC",
"P 	c #FEFEFE",
"Q 	c #FDFDFD",
"R 	c #F0F2F5",
"S 	c #6B8FBD",
"T 	c #698DBC",
"U 	c #6A8EBD",
"V 	c #8EA9CC",
"W 	c #2A528D",
"X 	c #F6F6F6",
"Y 	c #F5F5F5",
"Z 	c #F4F4F4",
"` 	c #F3F3F3",
" .	c #F2F2F2",
"..	c #959595",
"+.	c #AFBCCE",
"@.	c #8CA8CC",
"#.	c #658ABA",
"$.	c #6388B9",
"%.	c #6187B8",
"&.	c #95AECF",
"*.	c #6F89AD",
"=.	c #DEDEDE",
"-.	c #979797",
";.	c #F8F8F8",
">.	c #E5E5E5",
",.	c #9CADC3",
"'.	c #385E95",
").	c #7A99C2",
"!.	c #8DA8CC",
"~.	c #5F85B8",
"{.	c #5D84B7",
"].	c #5B82B6",
"^.	c #94AFCF",
"/.	c #97B0D0",
"(.	c #6182B0",
"_.	c #486A9B",
":.	c #D9DADB",
"<.	c #EDEDED",
"[.	c #7E7E7E",
"}.	c #DFDFDF",
"|.	c #ECECEC",
"1.	c #E0E0E0",
"2.	c #E3E3E3",
"3.	c #869BB9",
"4.	c #3A6198",
"5.	c #7B9AC3",
"6.	c #5A82B5",
"7.	c #5981B5",
"8.	c #5880B4",
"9.	c #4E79B0",
"0.	c #4370AB",
"a.	c #3969A7",
"b.	c #6C8FBE",
"c.	c #6889B6",
"d.	c #345A90",
"e.	c #CACDD2",
"f.	c #D7D7D7",
"g.	c #E2E2E2",
"h.	c #C3C3C3",
"i.	c #696969",
"j.	c #FAFAFA",
"k.	c #E1E1E1",
"l.	c #E4E4E4",
"m.	c #E7E7E7",
"n.	c #6C87AC",
"o.	c #42699C",
"p.	c #7B9BC3",
"q.	c #5881B5",
"r.	c #4A76AE",
"s.	c #416EAA",
"t.	c #3666A5",
"u.	c #3364A4",
"v.	c #5C83B6",
"w.	c #7493BE",
"x.	c #2D568F",
"y.	c #BBC3CE",
"z.	c #DCDCDC",
"A.	c #D9D9D9",
"B.	c #E9E9E9",
"C.	c #5F5F5F",
"D.	c #BDBDBD",
"E.	c #F0F0F0",
"F.	c #E0E1E2",
"G.	c #5A78A3",
"H.	c #426A9F",
"I.	c #3A69A7",
"J.	c #4D78B0",
"K.	c #7D9CC4",
"L.	c #315992",
"M.	c #A2B0C2",
"N.	c #DBDBDB",
"O.	c #DADADA",
"P.	c #D8D8D8",
"Q.	c #A2A2A2",
"R.	c #555555",
"S.	c #DDDDDD",
"T.	c #D8D9DA",
"U.	c #486A9A",
"V.	c #476EA2",
"W.	c #6F92BF",
"X.	c #416FAA",
"Y.	c #82A0C7",
"Z.	c #3C6298",
"`.	c #7E93B1",
" +	c #919191",
".+	c #D6D6D6",
"++	c #CCCED2",
"@+	c #395E93",
"#+	c #557AAC",
"$+	c #7092BF",
"%+	c #3D6CA9",
"&+	c #7E9DC6",
"*+	c #4A70A2",
"=+	c #58769F",
"-+	c #D0D0D0",
";+	c #D1D1D1",
">+	c #D2D2D2",
",+	c #D4D4D4",
"'+	c #7F7F7F",
")+	c #D5D5D5",
"!+	c #BABFC6",
"~+	c #2F578E",
"{+	c #5E82B1",
"]+	c #89A5CA",
"^+	c #597CAD",
"/+	c #3C6093",
"(+	c #C1C3C5",
"_+	c #CACACA",
":+	c #CCCCCC",
"<+	c #CDCDCD",
"[+	c #676767",
"}+	c #CECECE",
"|+	c #C8C8C8",
"1+	c #AEB4BD",
"2+	c #2B538C",
"3+	c #4D72A6",
"4+	c #2B548D",
"5+	c #B0B5BB",
"6+	c #C4C4C4",
"7+	c #C6C6C6",
"8+	c #D3D3D3",
"9+	c #626262",
"0+	c #B6B6B6",
"a+	c #EBEBEB",
"b+	c #CFCFCF",
"c+	c #CBCBCB",
"d+	c #A2ABB8",
"e+	c #9D9D9D",
"f+	c #555753",
"g+	c #575955",
"h+	c #CDD0D5",
"i+	c #575757",
"j+	c #DBDCDA",
"k+	c #BABBB9",
"l+	c #585A56",
"m+	c #E8E8E8",
"n+	c #DCDDDB",
"o+	c #BBBCBA",
"p+	c #595B57",
"q+	c #B7B7B7",
"r+	c #5A5C58",
"s+	c #B0B0B0",
"t+	c #B4B4B4",
"u+	c #B3B3B3",
"v+	c #B2B2B2",
"w+	c #B1B1B1",
"x+	c #AEAEAE",
"y+	c #ADADAD",
"z+	c #ACACAC",
"A+	c #ABABAB",
"B+	c #AAAAAA",
"C+	c #A8A8A8",
"D+	c #A7A7A7",
"E+	c #A6A6A6",
"F+	c #A5A5A5",
"G+	c #A4A4A4",
"H+	c #A1A1A1",
"I+	c #A0A0A0",
"J+	c #9F9F9F",
"K+	c #B9B9B9",
"L+	c #565854",
"M+	c #DDDEDC",
"N+	c #989898",
"O+	c #C5C5C5",
"P+	c #949494",
"Q+	c #C2C2C2",
"R+	c #929292",
"S+	c #C1C1C1",
"T+	c #909090",
"U+	c #BFBFBF",
"V+	c #DCDDDA",
"W+	c #C0C1BF",
"X+	c #C1C2C0",
"Y+	c #969696",
"Z+	c #C0C0C0",
"`+	c #8F8F8F",
" @	c #C4C5C3",
".@	c #C3C4C2",
"+@	c #A9A9A9",
"@@	c #939393",
"#@	c #CCCDCB",
"$@	c #525252",
"%@	c #D4D5D3",
"&@	c #C9C9C9",
"*@	c #C7C7C7",
"=@	c #BBBBBB",
"-@	c #515151",
";@	c #D7D8D6",
">@	c #505050",
",@	c #D3D4D2",
"                                                                ",
"                  . + @ # $                                     ",
"              % & * = - ; > , '                                 ",
"            % ) ! ~ { ] ^ / ( _ :                               ",
"          < [ } | 1 2 3 4 5 6 7 8 #                             ",
"          9 0 a     b c d e f g 3 h i                           ",
"        < j             k 3 l m n o p                           ",
"        q               r s t u v w x y                         ",
"            z A B B B B C D E F G H I J B K K K L M             ",
"          M N O P Q Q O R c ~ S T U V W X Y Z `  ...            ",
"          z Y +.y y y y y : @.#.$.%.&.y y y y y *.=.M           ",
"          -.;.>.,.'.).t w 6 !.~.{.].^./.( / (._.:.<.[.          ",
"        M }.|.1.2.3.4.5.#.].6.7.8.9.0.a.b.c.d.e.f.g.h.M         ",
"        i.j.k.l.m.m.n.o.p.q.r.s.t.u.u.v.w.x.y.z.A.A.B.C.        ",
"      z D.E.k.>.>.l.F.G.H.U I.u.u.u.J.K.L.M.z.N.O.P.l.Q.        ",
"      R.E.l.>.l.g.1.S.T.U.V.W.a.u.X.Y.Z.`.P.A.O.O.O.O.P.M       ",
"       +Y z.m.1.z.A..+.+++@+#+$+%+&+*+=+-+;+>+,+.+=.,+>.'+      ",
"    M P.m.z.2.}..+)+)+,+;+!+~+{+]+^+/+(+_+:+<+-+P.N.>+N.D.z     ",
"    [+Y z.A.f.}.}.f.,+;+}+|+1+2+3+4+5+6+7+_+<+P.A.<+-+8+1.9+    ",
"    0+a+P.f.f..+O.g.=.f.b+c+|+d+y d+7+_+-+f.O.>+}+b+>+P.S.e+    ",
"  M B.1.f+g+f+f+>+)+.+A.z.z.N.O.h+A.N.A.f.-+}+b+;+8+g.X O.8+i+  ",
"  M X z.g+j+k+l+.+z.N.A.P.f..+,+,+,+)+.+f.f.P.P.P.f..+f.)+m+R.  ",
"  M E.1.g+n+o+p+P.}.=.S.S.S.z.z.N.N.O.O.O.A.P.f.f..+.+)+)+-+M   ",
"  M B.q+f+n+o+r+s+t+u+v+w+N x+y+z+A+B+C+D+E+F+G+Q.H+I+J+J+K+M   ",
"f+f+f+L+r+M+o+p+f+f+f+f+B+z+y+x+A+B+N+O+-.h.P+Q+R+S+T+U+J+q+M   ",
"f+V+n+M+n+n+W+W+W+W+X+f+B+A+y+y+A+B+N+O+Y+h.P+Q+ +Z+`+U+J+t+M   ",
"f+j+ @.@.@.@.@.@.@.@.@f+B+A+y+z+B++@N+O+Y+h.@@S+ +Z+`+U+J+v+M   ",
"f+f+f+f+f+#@#@l+f+f+f+f+y+B+z+z+B++@-.6+..h.@@S+T+U+`+U+I+x+M   ",
"  $@O+k.f+%@%@l+)+f.)+8+;+b+<+c+&@*@6+Q+U+D.=@K+0+t+v+w+N ..-@  ",
"    -@M f+;@;@L+M M M M M M M M M M M M M M M M M M M M M >@    ",
"        f+,@,@g+                                                ",
"        L+g+g+L+                                                "};
