/* XPM */
static char const * cell_spin_up_xpm[] = {
"20 15 7 1",
" 	c None",
".	c #000000",
"+	c #FFFFFF",
"@	c #294627",
"#	c #177712",
"$	c #35E72C",
"%	c #C9FFC6",
"         .          ",
"        .+.         ",
"       .+++.        ",
"      .++@++.       ",
"     .++@#@++.      ",
"    .++@#$#@++.     ",
"   .++@#$$%#@++.    ",
"  .++@#$$%$$#@++.   ",
" .++@#$$%$$$$#@++.  ",
".++@#$$%$$$$$$#@++. ",
".+@#$$%$$$$$$$$#@++.",
".@###############@+.",
".@@@@@@@@@@@@@@@@@+.",
".++++++++++++++++++.",
"...................."};
