/* XPM */
static const char * pkg_installed_locked_xpm[] = {
"32 32 560 2",
"  	c None",
". 	c #949594",
"+ 	c #909090",
"@ 	c #8F8F8F",
"# 	c #8D8D8D",
"$ 	c #8B8B8B",
"% 	c #898989",
"& 	c #878787",
"* 	c #868686",
"= 	c #848484",
"- 	c #828282",
"; 	c #808080",
"> 	c #7E7E7E",
", 	c #7D7D7D",
"' 	c #7B7B7B",
") 	c #797979",
"! 	c #777777",
"~ 	c #7C7C7C",
"{ 	c #959595",
"] 	c #F1F2EF",
"^ 	c #F5F6F3",
"/ 	c #F4F5F3",
"( 	c #F4F5F2",
"_ 	c #F4F4F2",
": 	c #F3F4F2",
"< 	c #F3F4F1",
"[ 	c #F2F4F1",
"} 	c #F2F3F1",
"| 	c #EDEEEB",
"1 	c #A2A2A2",
"2 	c #F2F3F0",
"3 	c #B9BBC8",
"4 	c #3E3F8E",
"5 	c #545592",
"6 	c #535491",
"7 	c #525290",
"8 	c #515190",
"9 	c #52528F",
"0 	c #51518F",
"a 	c #50508F",
"b 	c #51518E",
"c 	c #53548D",
"d 	c #52538D",
"e 	c #52528B",
"f 	c #51518B",
"g 	c #53538D",
"h 	c #55568E",
"i 	c #54548E",
"j 	c #55558E",
"k 	c #54548D",
"l 	c #535494",
"m 	c #D4D7D0",
"n 	c #EEF0ED",
"o 	c #858685",
"p 	c #AAAAA9",
"q 	c #F0F2EE",
"r 	c #A7AAC0",
"s 	c #6A6A91",
"t 	c #7E7E96",
"u 	c #7D7D95",
"v 	c #7C7C94",
"w 	c #7A7A93",
"x 	c #797992",
"y 	c #777790",
"z 	c #767690",
"A 	c #75758F",
"B 	c #74748D",
"C 	c #73738D",
"D 	c #71718B",
"E 	c #70708B",
"F 	c #6F6F8A",
"G 	c #6D6D88",
"H 	c #6B6B86",
"I 	c #6A6A85",
"J 	c #696985",
"K 	c #494A8B",
"L 	c #A4A5A2",
"M 	c #CFD1CF",
"N 	c #8D8E8D",
"O 	c #AFB0AF",
"P 	c #EFF0ED",
"Q 	c #9697B8",
"R 	c #67678C",
"S 	c #6E6E89",
"T 	c #686884",
"U 	c #676783",
"V 	c #666683",
"W 	c #656582",
"X 	c #646482",
"Y 	c #636380",
"Z 	c #626280",
"` 	c #454688",
" .	c #D3D6CF",
"..	c #EAECE8",
"+.	c #959695",
"@.	c #B8B8B7",
"#.	c #EEEFEB",
"$.	c #8284AD",
"%.	c #646488",
"&.	c #6A6A86",
"*.	c #676784",
"=.	c #646481",
"-.	c #616180",
";.	c #61617F",
">.	c #5F5F7F",
",.	c #5F5F7E",
"'.	c #535375",
").	c #3F4084",
"!.	c #B2B4B0",
"~.	c #B7B8B7",
"{.	c #9B9C9B",
"].	c #BFBFBE",
"^.	c #ECEDE9",
"/.	c #7173A4",
"(.	c #646486",
"_.	c #696986",
":.	c #676785",
"<.	c #666684",
"[.	c #656583",
"}.	c #646483",
"|.	c #636381",
"1.	c #626281",
"2.	c #616181",
"3.	c #606080",
"4.	c #60607F",
"5.	c #5E5E7E",
"6.	c #5B5B7D",
"7.	c #49496E",
"8.	c #36365F",
"9.	c #292954",
"0.	c #242450",
"a.	c #373880",
"b.	c #D2D5CE",
"c.	c #E5E7E3",
"d.	c #A4A5A3",
"e.	c #C5C5C3",
"f.	c #EAECE7",
"g.	c #61639D",
"h.	c #5F5F80",
"i.	c #5D5D7F",
"j.	c #5C5C7E",
"k.	c #565679",
"l.	c #3E3E66",
"m.	c #2A2A56",
"n.	c #272754",
"o.	c #282855",
"p.	c #34357E",
"q.	c #B8BBB6",
"r.	c #ACADAB",
"s.	c #CACBC9",
"t.	c #E8EAE5",
"u.	c #575998",
"v.	c #606081",
"w.	c #5E5E80",
"x.	c #5C5C7F",
"y.	c #5B5B7E",
"z.	c #5A5A7E",
"A.	c #5A5A7D",
"B.	c #58587C",
"C.	c #545479",
"D.	c #3F3F69",
"E.	c #2C2C59",
"F.	c #2A2A58",
"G.	c #2B2B59",
"H.	c #2B2B5A",
"I.	c #2C2C5A",
"J.	c #2C2C5B",
"K.	c #30317C",
"L.	c #D0D4CD",
"M.	c #E0E2DD",
"N.	c #B0B1AF",
"O.	c #8C8C8C",
"P.	c #CFD0CD",
"Q.	c #E7E9E4",
"R.	c #535595",
"S.	c #5B5B7F",
"T.	c #59597E",
"U.	c #59597D",
"V.	c #58587D",
"W.	c #57577C",
"X.	c #55557C",
"Y.	c #474770",
"Z.	c #31315F",
"`.	c #2D2D5C",
" +	c #2E2E5D",
".+	c #2F2F5E",
"++	c #2F2F5F",
"@+	c #30305F",
"#+	c #303060",
"$+	c #2D2D7B",
"%+	c #BFC1BC",
"&+	c #A4A4A3",
"*+	c #B6B7B5",
"=+	c #5D5D5D",
"-+	c #8E8E8E",
";+	c #D3D5D2",
">+	c #E5E7E2",
",+	c #525393",
"'+	c #58587F",
")+	c #58587E",
"!+	c #57577D",
"~+	c #56567D",
"{+	c #54547C",
"]+	c #53537B",
"^+	c #4D4D76",
"/+	c #393967",
"(+	c #313160",
"_+	c #313161",
":+	c #323262",
"<+	c #333363",
"[+	c #333364",
"}+	c #343465",
"|+	c #2E2E7A",
"1+	c #C5C9C7",
"2+	c #DBDDD8",
"3+	c #BBBCB9",
"4+	c #5E5E5E",
"5+	c #8E8E8D",
"6+	c #D8D8D6",
"7+	c #E3E6E0",
"8+	c #505192",
"9+	c #54547D",
"0+	c #52527B",
"a+	c #4F4F79",
"b+	c #41416E",
"c+	c #353565",
"d+	c #353566",
"e+	c #353567",
"f+	c #363667",
"g+	c #363668",
"h+	c #373768",
"i+	c #373769",
"j+	c #383869",
"k+	c #38386A",
"l+	c #303078",
"m+	c #B8BCC3",
"n+	c #D8DBD5",
"o+	c #C0C1BE",
"p+	c #606060",
"q+	c #DCDDDA",
"r+	c #E1E4DE",
"s+	c #4C4D90",
"t+	c #51517C",
"u+	c #50507C",
"v+	c #50507B",
"w+	c #4E4E7B",
"x+	c #464674",
"y+	c #39396B",
"z+	c #3A3A6C",
"A+	c #3A3A6D",
"B+	c #3B3B6D",
"C+	c #3B3B6E",
"D+	c #3C3C6F",
"E+	c #3C3C70",
"F+	c #313179",
"G+	c #ADB0BD",
"H+	c #D5D9D3",
"I+	c #C4C6C2",
"J+	c #8A8A89",
"K+	c #DFE0DE",
"L+	c #DFE1DC",
"M+	c #48498E",
"N+	c #4B4B7A",
"O+	c #444474",
"P+	c #3C3C6E",
"Q+	c #3D3D70",
"R+	c #3D3D71",
"S+	c #3E3E71",
"T+	c #3E3E72",
"U+	c #3F3F73",
"V+	c #404074",
"W+	c #404075",
"X+	c #323277",
"Y+	c #A0A3B9",
"Z+	c #D4D6D0",
"`+	c #C8CAC7",
" @	c #5E5E5C",
".@	c #E3E3E1",
"+@	c #DCE0D9",
"@@	c #41418B",
"#@	c #404072",
"$@	c #414175",
"%@	c #414176",
"&@	c #424276",
"*@	c #424277",
"=@	c #434378",
"-@	c #434379",
";@	c #444479",
">@	c #44447A",
",@	c #45457A",
"'@	c #36367B",
")@	c #9193B1",
"!@	c #D1D5CF",
"~@	c #CCCECB",
"{@	c #585958",
"]@	c #848584",
"^@	c #E5E6E3",
"/@	c #DBDED6",
"(@	c #3C3C88",
"_@	c #45457B",
":@	c #46467C",
"<@	c #47477D",
"[@	c #47477E",
"}@	c #48487E",
"|@	c #48487F",
"1@	c #49497F",
"2@	c #3D3D7E",
"3@	c #8183AA",
"4@	c #CFD2CC",
"5@	c #D1D2CF",
"6@	c #575756",
"7@	c #808180",
"8@	c #E7E9E6",
"9@	c #D9DCD5",
"0@	c #383987",
"a@	c #46467D",
"b@	c #494980",
"c@	c #4A4A81",
"d@	c #4B4B82",
"e@	c #4B4B83",
"f@	c #4C4C84",
"g@	c #4D4D85",
"h@	c #454583",
"i@	c #7073A3",
"j@	c #CDD1CB",
"k@	c #D3D6D1",
"l@	c #525252",
"m@	c #EAEBE8",
"n@	c #D7DAD2",
"o@	c #202184",
"p@	c #3B3C87",
"q@	c #3B3C88",
"r@	c #3B3B88",
"s@	c #3B3C89",
"t@	c #3C3C89",
"u@	c #3C3C8A",
"v@	c #3C3D8A",
"w@	c #3D3D8A",
"x@	c #373889",
"y@	c #66689F",
"z@	c #CBCFC8",
"A@	c #D7D9D5",
"B@	c #4D4D4D",
"C@	c #787878",
"D@	c #EAECE9",
"E@	c #D1D4CE",
"F@	c #CED2CA",
"G@	c #CED1CA",
"H@	c #CDD1C9",
"I@	c #CDD0C9",
"J@	c #CCD0C8",
"K@	c #CCCFC8",
"L@	c #CBCFC7",
"M@	c #CBCEC7",
"N@	c #CACEC6",
"O@	c #AEB0AB",
"P@	c #B3B6AF",
"Q@	c #C9CCC5",
"R@	c #C8CCC4",
"S@	c #C8CBC4",
"T@	c #C7CBC4",
"U@	c #C7CAC3",
"V@	c #C6CAC3",
"W@	c #747672",
"X@	c #343534",
"Y@	c #2C2C2B",
"Z@	c #2B2C2B",
"`@	c #2F302F",
" #	c #A6A8A5",
".#	c #494949",
"+#	c #D4D6D2",
"@#	c #EBECE9",
"##	c #E9EBE7",
"$#	c #E8EAE6",
"%#	c #E7E9E5",
"&#	c #E6E8E5",
"*#	c #E6E8E4",
"=#	c #E4E6E2",
"-#	c #E3E6E1",
";#	c #E2E5E1",
">#	c #E2E4E0",
",#	c #E1E3DF",
"'#	c #D2D4D1",
")#	c #6F706E",
"!#	c #D2D2D2",
"~#	c #DBDBDB",
"{#	c #BCBCBC",
"]#	c #767676",
"^#	c #272727",
"/#	c #747474",
"(#	c #6E6E6E",
"_#	c #6C6C6C",
":#	c #6A6A6A",
"<#	c #686868",
"[#	c #676767",
"}#	c #656565",
"|#	c #636363",
"1#	c #616161",
"2#	c #5F5F5F",
"3#	c #5C5C5C",
"4#	c #5A5A5A",
"5#	c #585858",
"6#	c #565656",
"7#	c #555555",
"8#	c #535353",
"9#	c #515151",
"0#	c #313131",
"a#	c #838383",
"b#	c #BABABA",
"c#	c #383838",
"d#	c #1D1D1D",
"e#	c #4C4C4C",
"f#	c #B1B1B1",
"g#	c #4F504E",
"h#	c #838581",
"i#	c #ACAFA9",
"j#	c #ADB0AA",
"k#	c #8B8E89",
"l#	c #8D908C",
"m#	c #ABADAA",
"n#	c #A7A7A6",
"o#	c #363636",
"p#	c #C1C1C1",
"q#	c #0D0D0D",
"r#	c #2E2E2E",
"s#	c #AAAAAA",
"t#	c #000000",
"u#	c #525451",
"v#	c #9B9E9A",
"w#	c #AFB2AC",
"x#	c #B1B3AE",
"y#	c #AEB1AB",
"z#	c #A8AAA5",
"A#	c #2C2C2C",
"B#	c #BFBFBF",
"C#	c #141414",
"D#	c #A1A1A1",
"E#	c #A5A5A5",
"F#	c #A8A8A8",
"G#	c #171717",
"H#	c #C1C0C0",
"I#	c #595959",
"J#	c #595958",
"K#	c #585857",
"L#	c #575757",
"M#	c #515150",
"N#	c #505050",
"O#	c #14120F",
"P#	c #9B9794",
"Q#	c #201D1C",
"R#	c #0B0B07",
"S#	c #040302",
"T#	c #050403",
"U#	c #2F2921",
"V#	c #A8A39E",
"W#	c #1A130B",
"X#	c #DCE0D8",
"Y#	c #DFE3DB",
"Z#	c #DFE3DA",
"`#	c #E0E3DA",
" $	c #E0E3DB",
".$	c #E1E3DB",
"+$	c #E0E4DB",
"@$	c #E0E4DC",
"#$	c #A59176",
"$$	c #E0C4A0",
"%$	c #DFC4A3",
"&$	c #DABE9A",
"*$	c #D6BA94",
"=$	c #CDA676",
"-$	c #815A2B",
";$	c #949693",
">$	c #9F9F9E",
",$	c #9D9D9D",
"'$	c #E2C5A1",
")$	c #D8B58C",
"!$	c #CA9F68",
"~$	c #AC8758",
"{$	c #A78252",
"]$	c #A78253",
"^$	c #A37B4B",
"/$	c #BC8849",
"($	c #AC712E",
"_$	c #636463",
":$	c #BBBDB8",
"<$	c #9FA09F",
"[$	c #9C9D9C",
"}$	c #E3C6A2",
"|$	c #D5AE7E",
"1$	c #B08D5F",
"2$	c #D5B284",
"3$	c #CFAB7C",
"4$	c #CFAC7B",
"5$	c #CBA471",
"6$	c #BC8746",
"7$	c #AA6F2B",
"8$	c #676867",
"9$	c #BDC0BC",
"0$	c #A7A9A6",
"a$	c #AEAEAE",
"b$	c #ACACAB",
"c$	c #E1C4A0",
"d$	c #D0A674",
"e$	c #C79B64",
"f$	c #AA8455",
"g$	c #A47E4E",
"h$	c #A07744",
"i$	c #BA8442",
"j$	c #A4A7A2",
"k$	c #959991",
"l$	c #7A7D77",
"m$	c #A3A6A0",
"n$	c #777874",
"o$	c #858782",
"p$	c #989B94",
"q$	c #E1C29C",
"r$	c #CEA470",
"s$	c #AD8D64",
"t$	c #D2B289",
"u$	c #CDAC83",
"v$	c #CEAD83",
"w$	c #CCA77B",
"x$	c #B8803E",
"y$	c #AD7332",
"z$	c #D4D9D1",
"A$	c #E0E5DC",
"B$	c #E1E5DE",
"C$	c #E2E5DE",
"D$	c #E1E6DD",
"E$	c #E2E6DE",
"F$	c #E1E6DF",
"G$	c #E2E7DE",
"H$	c #E2E7DD",
"I$	c #E3E7DE",
"J$	c #E3E8DE",
"K$	c #E3E8DF",
"L$	c #E0C29E",
"M$	c #D4AC79",
"N$	c #CDA66E",
"O$	c #AF8D5E",
"P$	c #AB8758",
"Q$	c #AB8858",
"R$	c #A8814C",
"S$	c #B47E3E",
"T$	c #575857",
"U$	c #5A5B5A",
"V$	c #595A59",
"W$	c #555655",
"X$	c #535453",
"Y$	c #525352",
"Z$	c #515251",
"`$	c #525251",
" %	c #D0A874",
".%	c #C6965D",
"+%	c #BE8D50",
"@%	c #BA894B",
"#%	c #BD8C4E",
"$%	c #BC8A4C",
"%%	c #BA8647",
"&%	c #A47136",
"      . + @ @ @ @ @ @ @ @ @ @ # $ % & * = - ; > , ' ) ! ~       ",
"      { ] ^ ^ ^ ^ ^ ^ / / / / ( ( _ _ : : : < < < [ } | )       ",
"      1 2 3 4 5 5 6 7 8 9 0 a b c d e f g h i j k l m n o       ",
"      p q r s t u v w x y z A B C D E F G G H I J K L M N       ",
"      O P Q R z A B C D E S G G H I T U V W X Y Z `  ...+.      ",
"      @.#.$.%.S G G H &.J T *.V V =.=.Z -.;.>.,.'.).!.~.{.      ",
"      ].^./.(._.:.*.<.[.}.|.1.2.3.4.>.5.6.7.8.9.0.a.b.c.d.      ",
"      e.f.g.(.}.}.1.2.2.h.h.i.i.j.6.k.l.m.n.n.o.o.p.q.r.r.      ",
"      s.t.u.2.v.h.w.x.x.y.z.A.B.C.D.E.F.G.G.H.I.J.K.L.M.N.      ",
"    O.P.Q.R.x.S.S.T.U.V.W.W.X.Y.Z.`. + +.+.+++@+#+$+%+&+*+=+    ",
"    -+;+>+,+'+)+!+~+X.{+]+^+/+(+_+_+:+:+<+[+[+}+}+|+1+2+3+4+    ",
"    5+6+7+8+9+{+{+0+0+a+b+c+}+d+d+e+f+g+h+i+j+k+k+l+m+n+o+p+    ",
"    # q+r+s+t+u+v+w+x+y+i+k+k+y+y+z+z+A+B+C+D+D+E+F+G+H+I+4+    ",
"    J+K+L+M+w+N+O+D+B+C+P+D+E+Q+R+S+T+T+U+U+V+V+W+X+Y+Z+`+ @    ",
"    & .@+@@@#@R+T+T+U+U+V+V+W+$@%@&@*@*@=@-@;@>@,@'@)@!@~@{@    ",
"    ]@^@/@(@%@&@*@*@=@=@;@;@>@_@_@:@:@<@<@[@}@|@1@2@3@4@5@6@    ",
"    7@8@9@0@_@:@:@a@<@[@}@|@1@b@b@c@c@d@d@e@f@f@g@h@i@j@k@l@    ",
"    ~ m@n@o@p@q@r@r@q@s@t@t@t@s@s@t@u@v@v@v@w@v@v@x@y@z@A@B@    ",
"    C@D@E@F@G@H@I@I@J@K@L@M@N@O@P@Q@R@S@T@U@V@W@X@Y@Z@`@ #.#    ",
"    C@+#@#@#..m@##$#$#%#&#*#c.>+=#-#;#>#,#'#)#' !#~#~#{#]#^#    ",
"      /#(#_#:#<#[#}#|#1#2#4+3#4#5#6#7#8#9#0#a#b#c#d#d#e#f#a#    ",
"                  g#h#i#j#k#k#k#k#k#l#m#n#o#p#q#        r#s#t#  ",
"                  u#v#w#x#w#y#j#j#y#y#j#z#A#B#C#D#E#F#E#G#H#t#  ",
"      <#|#1#2#4+3#I#5#J#I#K#L#7#8#9#M#N#0#O#P#Q#R#S#S#T#U#V#W#  ",
"      |#X#Y#Y#Z#Y#Y#`# $`# $.$+$+$+$@$@$t##$$$%$%$&$&$&$*$=$-$t#",
"      ;$>$,$,$,$,$,$,$,$,$,$,$,$,$,$,$,$t#'$)$!$~${${$]$^$/$($t#",
"    _$:$E#E#E#<$[$[$[$[$[$[$[$[$[$[$E#E#t#}$|$1$2$3$3$4$5$6$7$t#",
"    8$9$s#s#s#0$a$a$a$a$a$a$a$a$a$b$&+a$t#c$d$e$f$g$g$g$h$i$($t#",
"    j$k$l$l$l$m$n$n$n$n$n$n$n$n$n$o$p$l$t#q$r$s$t$u$u$v$w$x$y$t#",
"  2#z$@$@$A$A$B$C$D$E$D$F$G$G$H$G$I$J$K$t#L$M$N$O$P$P$Q$R$6$S$t#",
"  I#T$U$V$T$W$X$Y$Y$Y$Z$Z$Z$Z$`$`$`$`$`$t# %.%+%+%@%@%#%$%%%&%t#",
"                                          t#t#t#t#t#t#t#t#t#t#  "};
