/* XPM */
static const char * cat_office_xpm[] = {
"22 22 176 2",
"  	c None",
". 	c #6587B3",
"+ 	c #5A81B3",
"@ 	c #547DB2",
"# 	c #5980B3",
"$ 	c #BAC9DD",
"% 	c #B7C9DF",
"& 	c #5981B4",
"* 	c #75551A",
"= 	c #5B451C",
"- 	c #577FB3",
"; 	c #C5D3E4",
"> 	c #6C92C0",
", 	c #AEC2DA",
"' 	c #557EB2",
") 	c #7F5F22",
"! 	c #D1BA80",
"~ 	c #A0854B",
"{ 	c #567EB2",
"] 	c #3F6FAB",
"^ 	c #7799C3",
"/ 	c #9EB6D2",
"( 	c #CBB27E",
"_ 	c #E4DAAB",
": 	c #9A7D40",
"< 	c #587FB2",
"[ 	c #658EBE",
"} 	c #83A3C8",
"| 	c #9FB7D3",
"1 	c #527CB1",
"2 	c #987C45",
"3 	c #DBB46A",
"4 	c #BC8D36",
"5 	c #765619",
"6 	c #577EB2",
"7 	c #6E95C1",
"8 	c #7C9DC5",
"9 	c #99B3D0",
"0 	c #527BB0",
"a 	c #C4A770",
"b 	c #D09B37",
"c 	c #85601D",
"d 	c #5B81B3",
"e 	c #5880B4",
"f 	c #7399C4",
"g 	c #90ACCC",
"h 	c #93ACCD",
"i 	c #577DAE",
"j 	c #9A9A98",
"k 	c #9A9B99",
"l 	c #999997",
"m 	c #949492",
"n 	c #8F908E",
"o 	c #907440",
"p 	c #DBB369",
"q 	c #B88321",
"r 	c #745415",
"s 	c #5E83B3",
"t 	c #6589B7",
"u 	c #7599C2",
"v 	c #9AB4D1",
"w 	c #7E9EC4",
"x 	c #FFFFFF",
"y 	c #BB9C64",
"z 	c #D19D3B",
"A 	c #87631D",
"B 	c #888A85",
"C 	c #5D82B3",
"D 	c #678BB9",
"E 	c #6F94BF",
"F 	c #9DB6D3",
"G 	c #7093BE",
"H 	c #6688B3",
"I 	c #DBDBDA",
"J 	c #D9D9D8",
"K 	c #CEC2AB",
"L 	c #DAB268",
"M 	c #BB8520",
"N 	c #79602D",
"O 	c #778BA5",
"P 	c #6F96C2",
"Q 	c #668DBB",
"R 	c #9CB5D2",
"S 	c #C9C3B7",
"T 	c #B59558",
"U 	c #D29F3F",
"V 	c #8C651B",
"W 	c #EEEEEC",
"X 	c #8C98A6",
"Y 	c #6382A7",
"Z 	c #7094BE",
"` 	c #6C92BD",
" .	c #98B2D0",
"..	c #7296BF",
"+.	c #6586B2",
"@.	c #D8B166",
"#.	c #BE8E33",
"$.	c #8D8979",
"%.	c #EFEFEE",
"&.	c #FEFEFE",
"*.	c #E7ECF2",
"=.	c #929695",
"-.	c #969996",
";.	c #949796",
">.	c #929694",
",.	c #969790",
"'.	c #97968D",
").	c #919189",
"!.	c #FDFDFD",
"~.	c #F4F4F4",
"{.	c #E9E9E9",
"].	c #F3F6F9",
"^.	c #FBFCFD",
"/.	c #B0C4DC",
"(.	c #A2B9D3",
"_.	c #97AEC6",
":.	c #C3B191",
"<.	c #C4BDB1",
"[.	c #FAFBFC",
"}.	c #C8BFAF",
"|.	c #A6BCD5",
"1.	c #99B1CE",
"2.	c #8DA1B6",
"3.	c #D9D9D9",
"4.	c #EBEBEB",
"5.	c #F4F4F3",
"6.	c #EAE5DD",
"7.	c #C8BEAD",
"8.	c #C1B59D",
"9.	c #A7BCD4",
"0.	c #A9B8CA",
"a.	c #92AAC7",
"b.	c #E3E3E2",
"c.	c #F5F5F5",
"d.	c #D2CBBC",
"e.	c #CFC1A9",
"f.	c #BDB198",
"g.	c #BDB7A9",
"h.	c #91A9C5",
"i.	c #7E9DC1",
"j.	c #D4D4D2",
"k.	c #F8F8F8",
"l.	c #878984",
"m.	c #FCFCFC",
"n.	c #C7C1B4",
"o.	c #C9BAA2",
"p.	c #D7C6B2",
"q.	c #D0C3B5",
"r.	c #CBCCCC",
"s.	c #D7D7D7",
"t.	c #91A5BB",
"u.	c #A4B8CE",
"v.	c #F5F6F5",
"w.	c #787A76",
"x.	c #D8D8D8",
"y.	c #F2F2F2",
"z.	c #D0CBC2",
"A.	c #C7B69C",
"B.	c #CEC2B0",
"C.	c #D0CDCB",
"D.	c #CECDCD",
"E.	c #C4C4C4",
"F.	c #DCDCDC",
"G.	c #EFEFEF",
"H.	c #7C7E7A",
"I.	c #82847F",
"J.	c #DADADA",
"K.	c #FBFBFB",
"L.	c #FAF9F8",
"M.	c #FAFAF9",
"N.	c #F6F6F6",
"O.	c #F7F7F7",
"P.	c #C6C7C6",
"Q.	c #747571",
"R.	c #81837E",
"S.	c #71736F",
". + @                                       ",
"# $ % &                           * =       ",
"- ; > , '                       ) ! ~       ",
". { ] ^ / '                     ( _ :       ",
"  { < [ } | 1                 2 3 4 5       ",
"  -   6 7 8 9 0               a b c         ",
"  - d   e f g h i j k l m n o p q r         ",
"    - # s t u v w . x x x x y z A B         ",
"      { d C D E F G H I J K L M N B         ",
"        { O + P Q R G H S T U V W B         ",
"          B X Y Z `  ...+.@.#.$.%.B         ",
"          B &.*.=.-.;.>.,.'.).!.~.B         ",
"          B &.&.x x x x x x x {.~.B         ",
"          B &.&.].^./.(._.:.<.{.~.B         ",
"          B &.&.x [.}.|.1.2.3.4.5.B         ",
"          B &.&.x 6.7.8.9.0.a.b.c.B         ",
"          B &.!.x d.e.f.g.h.i.j.k.B         ",
"          l.m.c.n.o.p.q.r.s.t.u.v.l.        ",
"          w.x.y.z.A.B.C.D.E.F.G.{.H.        ",
"            I.J.K.L.M.N.c.N.O.P.I.          ",
"              Q.I.B B B B B R.S.            ",
"                                            "};
