/* XPM */
static const char * cat_documentation_xpm[] = {
"22 22 232 2",
"  	c None",
". 	c #204A87",
"+ 	c #4C6E9F",
"@ 	c #879DBE",
"# 	c #B3C1D6",
"$ 	c #E0E6EE",
"% 	c #B4C2D7",
"& 	c #879EBE",
"* 	c #4C6E9E",
"= 	c #29518B",
"- 	c #A0B2CC",
"; 	c #E6EBF1",
"> 	c #A4B5CE",
", 	c #7893B7",
"' 	c #4E71A1",
") 	c #5072A3",
"! 	c #7D96BB",
"~ 	c #A9BAD2",
"{ 	c #E9EDF3",
"] 	c #A1B3CD",
"^ 	c #29518C",
"/ 	c #4A6C9E",
"( 	c #DFE5EE",
"_ 	c #A9B9D1",
": 	c #355C94",
"< 	c #2F5791",
"[ 	c #335B94",
"} 	c #365E96",
"| 	c #386098",
"1 	c #396199",
"2 	c #3A6299",
"3 	c #466B9F",
"4 	c #B5C4D9",
"5 	c #4D6EA0",
"6 	c #29528C",
"7 	c #6C88B0",
"8 	c #2D5690",
"9 	c #6281AD",
"0 	c #B5C4D8",
"a 	c #E3E8F0",
"b 	c #F8F9FB",
"c 	c #F3F5F8",
"d 	c #DAE2EC",
"e 	c #92A9C7",
"f 	c #446B9F",
"g 	c #41699E",
"h 	c #829CBF",
"i 	c #E0E6EF",
"j 	c #A3B4CD",
"k 	c #A8B9D0",
"l 	c #345C95",
"m 	c #FFFFFF",
"n 	c #A9BCD4",
"o 	c #4B71A5",
"p 	c #486FA3",
"q 	c #BAC8DB",
"r 	c #A6B8D0",
"s 	c #214B87",
"t 	c #5071A0",
"u 	c #E5EAF1",
"v 	c #375E95",
"w 	c #345D95",
"x 	c #3B639A",
"y 	c #A8BAD2",
"z 	c #B8C7DB",
"A 	c #7B97BD",
"B 	c #6688B3",
"C 	c #A6BAD4",
"D 	c #ECF0F5",
"E 	c #547AAC",
"F 	c #5177A9",
"G 	c #587CAB",
"H 	c #5273A2",
"I 	c #8CA2C1",
"J 	c #42699F",
"K 	c #4B72A5",
"L 	c #5076A8",
"M 	c #557BAC",
"N 	c #5A7FB0",
"O 	c #6B8DB8",
"P 	c #F0F3F7",
"Q 	c #5E83B2",
"R 	c #5A7FAF",
"S 	c #B6C6DB",
"T 	c #90A7C5",
"U 	c #BAC7DA",
"V 	c #7691B6",
"W 	c #386097",
"X 	c #40679D",
"Y 	c #577CAD",
"Z 	c #5D82B2",
"` 	c #6488B6",
" .	c #CED9E8",
"..	c #C2D1E3",
"+.	c #678BB9",
"@.	c #6287B5",
"#.	c #96ADCB",
"$.	c #BDCBDD",
"%.	c #224C88",
"&.	c #E7ECF2",
"*.	c #4E71A2",
"=.	c #3C649A",
"-.	c #456CA1",
";.	c #4D74A7",
">.	c #6489B7",
",.	c #CBD7E7",
"'.	c #E1E8F1",
").	c #7799C3",
"!.	c #7093BF",
"~.	c #6B8EBB",
"{.	c #7796BE",
"].	c #E6EBF2",
"^.	c #E8EDF3",
"/.	c #5074A4",
"(.	c #496FA3",
"_.	c #5278AA",
":.	c #5A80B0",
"<.	c #6387B6",
"[.	c #B2C5DB",
"}.	c #E0E8F2",
"|.	c #83A4CB",
"1.	c #7C9FC8",
"2.	c #789BC5",
"3.	c #7295C0",
"4.	c #6B8FBB",
"5.	c #7C9AC2",
"6.	c #E7ECF3",
"7.	c #224B88",
"8.	c #BECBDD",
"9.	c #7C96BB",
"0.	c #4C72A5",
"a.	c #5E83B3",
"b.	c #E1E9F1",
"c.	c #9EB9D8",
"d.	c #88A9D0",
"e.	c #85A7CE",
"f.	c #80A2CA",
"g.	c #9FB6D3",
"h.	c #C1CEDF",
"i.	c #234D89",
"j.	c #94A8C5",
"k.	c #A6B8D1",
"l.	c #446BA0",
"m.	c #4E74A7",
"n.	c #577DAE",
"o.	c #6185B4",
"p.	c #6A8EBB",
"q.	c #81A2C9",
"r.	c #89AACF",
"s.	c #8EAFD4",
"t.	c #91B2D6",
"u.	c #8DAFD4",
"v.	c #86A7CE",
"w.	c #7D9FC8",
"x.	c #7397C1",
"y.	c #C1D0E2",
"z.	c #97ACC9",
"A.	c #5879A6",
"B.	c #4C71A4",
"C.	c #587DAE",
"D.	c #6286B5",
"E.	c #6B8FBC",
"F.	c #D3DEEB",
"G.	c #E7EDF5",
"H.	c #E9EFF6",
"I.	c #9FBCDC",
"J.	c #9BBBDD",
"K.	c #92B3D7",
"L.	c #88AAD0",
"M.	c #7EA1C9",
"N.	c #7C9DC5",
"O.	c #EEF2F7",
"P.	c #5575A4",
"Q.	c #AFBFD5",
"R.	c #AFC0D6",
"S.	c #6186B4",
"T.	c #E9EFF5",
"U.	c #9FBBDA",
"V.	c #86A8CE",
"W.	c #C8D6E7",
"X.	c #B2C2D8",
"Y.	c #2E568F",
"Z.	c #809BC0",
"`.	c #5F83B3",
" +	c #688CB9",
".+	c #E9EEF5",
"++	c #98B5D6",
"@+	c #89AAD0",
"#+	c #86A8CF",
"$+	c #80A3CA",
"%+	c #A4BBD7",
"&+	c #E9EEF4",
"*+	c #2C538D",
"=+	c #5878A6",
"-+	c #B5C5DB",
";+	c #6285B3",
">+	c #6388B6",
",+	c #7396C1",
"'+	c #799CC5",
")+	c #7DA0C8",
"!+	c #7FA1C9",
"~+	c #83A4CA",
"{+	c #C9D7E7",
"]+	c #EAEFF5",
"^+	c #5576A5",
"/+	c #214B88",
"(+	c #B4C4D9",
"_+	c #B7C7DC",
":+	c #99B1CF",
"<+	c #7E9DC4",
"[+	c #83A2C7",
"}+	c #A3BAD7",
"|+	c #C1D1E4",
"1+	c #B5C5DA",
"2+	c #2C558E",
"3+	c #214A86",
"4+	c #5C7CA8",
"5+	c #9CB0CC",
"6+	c #C8D3E3",
"7+	c #EDF1F6",
"8+	c #C9D4E4",
"9+	c #9DB1CC",
"0+	c #5978A5",
"a+	c #224982",
"b+	c #132C51",
"c+	c #193866",
"d+	c #20457A",
"e+	c #204985",
"f+	c #214982",
"g+	c #1E4173",
"h+	c #15325A",
"i+	c #0F2341",
"                                            ",
"              . . . . . . . .               ",
"          . . + @ # $ $ % & * .             ",
"        . = - ; > , ' ) ! ~ { ] ^ .         ",
"      . / ( _ : < [ } | 1 2 3 4 $ 5 .       ",
"    . 6 $ 7 8 9 0 a b c d e f g h i ^       ",
"    . j k 8 l ~ m m m m m m n o p q r s     ",
"  . t u v w x y z A B C m m D E F G D H     ",
"  . I - [ 2 J K L M N O m m P Q R M S T .   ",
"  . U V W X p L Y Z `  .m m ..+.@.Z #.$.%.  ",
"  . &.*.=.-.;.M Z >.,.m m '.).!.~.>.{.].s   ",
"  . ^./.X (._.:.<.[.m m }.|.1.2.3.4.5.6.7.  ",
"  . 8.9.J 0.M a.+.b.m m c.d.e.f.2.!.g.h.i.  ",
"  . j.k.l.m.n.o.p.).q.r.s.t.u.v.w.x.y.z..   ",
"  . A.].B.m.C.D.E.F.G.H.I.J.K.L.M.N.O.P.    ",
"    . Q.R.m.n.S.p.T.m m U.K.s.V.w.W.X.i.    ",
"      Y.&.Z.M `. +.+m m ++@+#+$+%+&+*+      ",
"      s =+6.-+;+>+E.,+'+)+!+~+{+]+^+        ",
"        /+Y.(+&+_+:+<+[+}+|+O.1+2+          ",
"            3+4+5+6+7+7+8+9+0+a+            ",
"              b+c+d+e+f+g+h+i+              ",
"                                            "};
