/* XPM */
static const char * cat_network_xpm[] = {
"22 22 279 2",
"  	c None",
". 	c #465586",
"+ 	c #3E5E93",
"@ 	c #32578F",
"# 	c #264E8A",
"$ 	c #224C88",
"% 	c #2B528D",
"& 	c #33558D",
"* 	c #38558C",
"= 	c #3E5D91",
"- 	c #234D89",
"; 	c #4570A7",
"> 	c #5D89BC",
", 	c #6A97C8",
"' 	c #719DCC",
") 	c #759FCD",
"! 	c #6993C2",
"~ 	c #4C75AB",
"{ 	c #305088",
"] 	c #4B6B9D",
"^ 	c #4771A7",
"/ 	c #6B98C9",
"( 	c #93B5D9",
"_ 	c #9EB8D9",
": 	c #BED0E5",
"< 	c #D6E4F4",
"[ 	c #D9E5F2",
"} 	c #F0F4F9",
"| 	c #CBD8E8",
"1 	c #C4D6E9",
"2 	c #87A2C5",
"3 	c #6A85AD",
"4 	c #7C91B5",
"5 	c #98B1CF",
"6 	c #B2CAE4",
"7 	c #DAE2ED",
"8 	c #E6EDF7",
"9 	c #F4F9FE",
"0 	c #FDFEFF",
"a 	c #FFFFFF",
"b 	c #FDFDFE",
"c 	c #F5F8FB",
"d 	c #BBCCE0",
"e 	c #6083B2",
"f 	c #4A75AB",
"g 	c #2B508A",
"h 	c #8B95B5",
"i 	c #C6D2E2",
"j 	c #EDF2F8",
"k 	c #FCFDFD",
"l 	c #E7ECF5",
"m 	c #E9F2FC",
"n 	c #F4F9FF",
"o 	c #FEFEFF",
"p 	c #FCFDFE",
"q 	c #F6F8FB",
"r 	c #EAEEF4",
"s 	c #D8E0EB",
"t 	c #8EA6C6",
"u 	c #6A92C1",
"v 	c #406AA2",
"w 	c #244884",
"x 	c #7992B7",
"y 	c #A4B9D3",
"z 	c #BECCDD",
"A 	c #D9E3EF",
"B 	c #E9F4FF",
"C 	c #EDF5FF",
"D 	c #F6FAFF",
"E 	c #F1F7FF",
"F 	c #F3F8FD",
"G 	c #E5ECF4",
"H 	c #CCD8E8",
"I 	c #A5BEDB",
"J 	c #9DB5D2",
"K 	c #C8D3E3",
"L 	c #D2DCE8",
"M 	c #88ABD1",
"N 	c #264E88",
"O 	c #9FA7C1",
"P 	c #6787B2",
"Q 	c #6F8EB8",
"R 	c #9BB2D1",
"S 	c #DFEEFC",
"T 	c #EFF7FF",
"U 	c #E8F3FF",
"V 	c #DEEEFF",
"W 	c #E0EFFF",
"X 	c #DFEDFB",
"Y 	c #BCD0E6",
"Z 	c #6788B4",
"` 	c #587DAE",
" .	c #688EBC",
"..	c #688DBB",
"+.	c #5F81AE",
"@.	c #DDE5EF",
"#.	c #7F98BD",
"$.	c #5D75A1",
"%.	c #8AA7CA",
"&.	c #CBDCEF",
"*.	c #E5EEF8",
"=.	c #E9F2FB",
"-.	c #EDF6FE",
";.	c #D6EAFF",
">.	c #D3E9FF",
",.	c #CEE5FC",
"'.	c #B5CFED",
").	c #4D72A6",
"!.	c #466DA2",
"~.	c #40689F",
"{.	c #3B649C",
"].	c #39639C",
"^.	c #436CA3",
"/.	c #7B98BE",
"(.	c #C0CDDF",
"_.	c #426193",
":.	c #385B92",
"<.	c #A3BEDC",
"[.	c #E8EEF5",
"}.	c #FAFBFD",
"|.	c #F2F7FC",
"1.	c #E5EFFA",
"2.	c #C7DFF8",
"3.	c #C6DEF8",
"4.	c #BFD9F4",
"5.	c #8FAFD4",
"6.	c #476EA3",
"7.	c #436AA0",
"8.	c #3E679E",
"9.	c #39639B",
"0.	c #345F99",
"a.	c #3E6CA4",
"b.	c #91A9C7",
"c.	c #7F9FC5",
"d.	c #8195B7",
"e.	c #335991",
"f.	c #AAC5E1",
"g.	c #F8F9FC",
"h.	c #FEFEFE",
"i.	c #EFF3F7",
"j.	c #C7D9EB",
"k.	c #B7D1EE",
"l.	c #B4D0EE",
"m.	c #AFCCEB",
"n.	c #96B6DB",
"o.	c #446CA1",
"p.	c #3B659C",
"q.	c #37619A",
"r.	c #325D97",
"s.	c #315E98",
"t.	c #7796BE",
"u.	c #739AC7",
"v.	c #204986",
"w.	c #2C528B",
"x.	c #8EB0D6",
"y.	c #F9FAFC",
"z.	c #F6F8FA",
"A.	c #BDCCDF",
"B.	c #9AB9DA",
"C.	c #A2C2E4",
"D.	c #9EBFE2",
"E.	c #97B9DE",
"F.	c #789ECA",
"G.	c #7299C6",
"H.	c #4C76AB",
"I.	c #345F98",
"J.	c #305B96",
"K.	c #7C97BC",
"L.	c #85A2C4",
"M.	c #6A96C7",
"N.	c #254A86",
"O.	c #9DB6D5",
"P.	c #EEF3F9",
"Q.	c #D6DFEB",
"R.	c #D7E0EB",
"S.	c #E3E9F1",
"T.	c #97ACCA",
"U.	c #6F94C0",
"V.	c #8DB1D8",
"W.	c #87ACD5",
"X.	c #7EA6D0",
"Y.	c #749DCB",
"Z.	c #5D86B8",
"`.	c #4E73A6",
" +	c #5074A6",
".+	c #88A2C4",
"++	c #6688B2",
"@+	c #204A87",
"#+	c #879DC0",
"$+	c #C2D4E7",
"%+	c #94ADCD",
"&+	c #859FC1",
"*+	c #5578A8",
"=+	c #DBE2ED",
"-+	c #CBD8E7",
";+	c #88ACD3",
">+	c #769FCC",
",+	c #6F99C8",
"'+	c #729BC8",
")+	c #81A2C9",
"!+	c #89A1C2",
"~+	c #AABBD3",
"{+	c #ADBED5",
"]+	c #7393BA",
"^+	c #9AABC6",
"/+	c #8FAED2",
"(+	c #628EC0",
"_+	c #3E69A1",
":+	c #3C649C",
"<+	c #42699F",
"[+	c #7B9CC3",
"}+	c #D6E2EF",
"|+	c #BCCFE4",
"1+	c #7DA2CB",
"2+	c #ADC3DA",
"3+	c #F2F5F8",
"4+	c #F8F9FB",
"5+	c #C8D3E2",
"6+	c #80A5CE",
"7+	c #28518B",
"8+	c #395C91",
"9+	c #446DA3",
"0+	c #6C98C8",
"a+	c #406CA5",
"b+	c #305C96",
"c+	c #3E6AA2",
"d+	c #5F8BBE",
"e+	c #90AFD2",
"f+	c #C1D2E5",
"g+	c #D4DFED",
"h+	c #D4E0ED",
"i+	c #F7F9FB",
"j+	c #E5EBF2",
"k+	c #8DA4C4",
"l+	c #456493",
"m+	c #244A83",
"n+	c #648EBF",
"o+	c #356099",
"p+	c #4272AB",
"q+	c #497BB3",
"r+	c #4779B2",
"s+	c #4376B0",
"t+	c #5B86B6",
"u+	c #CCD8E7",
"v+	c #F3F5F9",
"w+	c #FCFCFD",
"x+	c #FBFCFD",
"y+	c #E0E4EB",
"z+	c #94A4BB",
"A+	c #1D447C",
"B+	c #406BA3",
"C+	c #5D85B5",
"D+	c #507BAD",
"E+	c #698DB7",
"F+	c #8BA6C5",
"G+	c #B7C6D9",
"H+	c #99ADC7",
"I+	c #A4B3CB",
"J+	c #CAD3E1",
"K+	c #D6DBE2",
"L+	c #B4BCC7",
"M+	c #A0A5AA",
"N+	c #1C3D6E",
"O+	c #5D83B2",
"P+	c #85A6CC",
"Q+	c #7CA4CF",
"R+	c #9CBCDD",
"S+	c #749ECB",
"T+	c #5983B5",
"U+	c #4B6C9B",
"V+	c #526B8F",
"W+	c #768599",
"X+	c #939393",
"Y+	c #405B82",
"Z+	c #1D437A",
"`+	c #1F4783",
" @	c #1F4986",
".@	c #1C4278",
"+@	c #173561",
"                                            ",
"            . + @ # $ % & *                 ",
"          = - ; > , ' ) ! ~ - {             ",
"        ] ^ / ( _ : < [ } | 1 2 3           ",
"      4 5 6 7 8 9 0 a b c d e ! f g         ",
"    h i j k l m n o o p q r s t u v w       ",
"    x y z A B C D E F G H I J K L M N       ",
"  O P Q R S T U V W X Y Z `  ...+.@.#.      ",
"  $.%.&.*.=.-.;.>.,.'.).!.~.{.].^./.(._.    ",
"  :.<.[.}.|.1.2.3.4.5.6.7.8.9.0.a.b.c.d.    ",
"  e.f.g.h.i.j.k.l.m.n.o.~.p.q.r.s.t.u.v.    ",
"  w.x.y.a z.A.B.C.D.E.F.G.H.I.J.K.L.M.v.    ",
"  N.O.P.Q.R.S.T.U.V.W.X.Y.Z.`. +.+++> @+    ",
"    #+$+%+&+*+=+-+;+>+,+'+)+!+~+{+]+; @+    ",
"    ^+/+(+_+:+<+[+}+|+1+1+2+3+4+5+6+7+      ",
"    8+9+0+a+b+c+d+e+f+g+h+i+a h.j+k+l+      ",
"      m+f n+o+p+q+r+s+t+u+v+w+x+y+z+        ",
"        A+B+/ C+D+E+F+G+H+I+J+K+L+M+        ",
"          N+- O+P+Q+R+S+T+U+V+W+X+          ",
"              Y+Z+`+ @`+.@+@                ",
"                                            ",
"                                            "};
