/* XPM */
static const char * cat_utilities_xpm[] = {
"22 22 215 2",
"  	c None",
". 	c #8F918C",
"+ 	c #8D8F8A",
"@ 	c #888A85",
"# 	c #90928E",
"$ 	c #91938E",
"% 	c #C2C4C1",
"& 	c #9C9D99",
"* 	c #90928D",
"= 	c #D2D3D1",
"- 	c #929490",
"; 	c #C4A000",
"> 	c #939590",
", 	c #D7D8D6",
"' 	c #E2E2E2",
") 	c #9F9F9C",
"! 	c #9B9C98",
"~ 	c #ABACA8",
"{ 	c #E3E3E3",
"] 	c #D0D1D0",
"^ 	c #A0A19D",
"/ 	c #C6A304",
"( 	c #EBEBEB",
"_ 	c #DCDDDC",
": 	c #8C8E89",
"< 	c #E3E3E2",
"[ 	c #E0E0E0",
"} 	c #D8D9D8",
"| 	c #959792",
"1 	c #C5A202",
"2 	c #D5B934",
"3 	c #C4A104",
"4 	c #9D9E9A",
"5 	c #E8E8E8",
"6 	c #E1E1E1",
"7 	c #B2B3B1",
"8 	c #A4A6A2",
"9 	c #C5C6C3",
"0 	c #DFDFDF",
"a 	c #989A95",
"b 	c #C8A710",
"c 	c #FAF1AE",
"d 	c #C5A105",
"e 	c #E0E0DF",
"f 	c #92948F",
"g 	c #DEDEDE",
"h 	c #CBCCCB",
"i 	c #91938F",
"j 	c #C6A203",
"k 	c #F3E690",
"l 	c #FDF6BD",
"m 	c #C9C9C8",
"n 	c #AAABA8",
"o 	c #949691",
"p 	c #D4D5D3",
"q 	c #DDDDDD",
"r 	c #E6D162",
"s 	c #FAF09E",
"t 	c #C5A204",
"u 	c #C5A004",
"v 	c #C2C3C0",
"w 	c #9C9E9A",
"x 	c #A4A5A2",
"y 	c #DCDCDC",
"z 	c #B1B2B0",
"A 	c #D4B82F",
"B 	c #FCF3AE",
"C 	c #FBE95B",
"D 	c #FBF1AC",
"E 	c #8A8C87",
"F 	c #EAEAE9",
"G 	c #D6D6D6",
"H 	c #A9ABA7",
"I 	c #C1C3C1",
"J 	c #DBDBDB",
"K 	c #DEDEDD",
"L 	c #C8A60D",
"M 	c #F9EEA4",
"N 	c #FAE96B",
"O 	c #F8E44A",
"P 	c #FBF2AC",
"Q 	c #ADAEAB",
"R 	c #B0B2AF",
"S 	c #BEBFBD",
"T 	c #979995",
"U 	c #C6A202",
"V 	c #F0E182",
"W 	c #F9EB82",
"X 	c #ECD539",
"Y 	c #F2DD41",
"Z 	c #C3A003",
"` 	c #DFE0DE",
" .	c #DADADA",
"..	c #D8D8D8",
"+.	c #B3B4B1",
"@.	c #BABCBA",
"#.	c #C6A303",
"$.	c #E2CB54",
"%.	c #F9ED96",
"&.	c #F2DC43",
"*.	c #CBA90A",
"=.	c #F1DB3F",
"-.	c #F8EEA0",
";.	c #9B8F8B",
">.	c #BFC0BE",
",.	c #A99592",
"'.	c #D1B426",
").	c #F8EC9D",
"!.	c #F2DE4E",
"~.	c #D6B719",
"{.	c #EED83D",
"].	c #F7EB9B",
"^.	c #B00606",
"/.	c #946F6B",
"(.	c #B6B3B1",
"_.	c #B32304",
":.	c #C7A40A",
"<.	c #F2DF5E",
"[.	c #E2C82B",
"}.	c #E9D237",
"|.	c #C4A003",
"1.	c #B30808",
"2.	c #B50909",
"3.	c #AE0505",
"4.	c #DA3130",
"5.	c #C73A39",
"6.	c #AA0303",
"7.	c #AE0504",
"8.	c #B6100C",
"9.	c #CA582F",
"0.	c #E0B62E",
"a.	c #E9D135",
"b.	c #F1E288",
"c.	c #C4A103",
"d.	c #D41A1A",
"e.	c #DC1F1F",
"f.	c #E12121",
"g.	c #B71809",
"h.	c #B94E04",
"i.	c #E6CD31",
"j.	c #F0E286",
"k.	c #AD0505",
"l.	c #DC1E1E",
"m.	c #C41111",
"n.	c #CE1717",
"o.	c #CB1515",
"p.	c #A40000",
"q.	c #AE5855",
"r.	c #AD2F00",
"s.	c #B31309",
"t.	c #C51D12",
"u.	c #AD0504",
"v.	c #E1C72B",
"w.	c #C3A002",
"x.	c #AE1211",
"y.	c #E72525",
"z.	c #C91313",
"A.	c #D71C1C",
"B.	c #B10707",
"C.	c #BA6A04",
"D.	c #C46215",
"E.	c #B64403",
"F.	c #B0200F",
"G.	c #E1C629",
"H.	c #ECDB78",
"I.	c #AE0D0C",
"J.	c #EF2929",
"K.	c #BE0D0D",
"L.	c #B20808",
"M.	c #E22222",
"N.	c #B40909",
"O.	c #C5A101",
"P.	c #E4CF5E",
"Q.	c #BA1F12",
"R.	c #B41608",
"S.	c #C07A05",
"T.	c #BE0F0C",
"U.	c #B22A0A",
"V.	c #C9A707",
"W.	c #DFC326",
"X.	c #EAD770",
"Y.	c #B00909",
"Z.	c #CC1515",
"`.	c #C71111",
" +	c #E32323",
".+	c #B60A0A",
"++	c #D7BD39",
"@+	c #ECDA74",
"#+	c #C86A19",
"$+	c #BA1C0D",
"%+	c #CC1715",
"&+	c #B41A0B",
"*+	c #DDC124",
"=+	c #DBBF22",
"-+	c #C5A102",
";+	c #C4A002",
">+	c #BC0D0D",
",+	c #C51212",
"'+	c #D81A1A",
")+	c #D01818",
"!+	c #CBAA16",
"~+	c #EAD978",
"{+	c #EBD97A",
"]+	c #EAD876",
"^+	c #CA5B33",
"/+	c #D06B38",
"(+	c #E5D165",
"_+	c #E4D063",
":+	c #E2CE5F",
"<+	c #B20707",
"[+	c #C4A001",
"}+	c #BB6104",
"|+	c #B63005",
"1+	c #B73006",
"2+	c #BD5A05",
"    . +                   @ #               ",
"    $ % &               * = - @         ;   ",
"  > , ' ) !           > ~ { ] ^       / ;   ",
"  . ( ' _ !           : < [ } |     1 2 3   ",
"  @ 4 5 6 7 8       | 9 0 ' a       b c d   ",
"    @ e [ [ a       f 6 g h i     j k l d   ",
"    @ * ( 0 m n   o p q ' :     / r s t u   ",
"      @ v [ q 4 w x y y z >   1 A B C D 3   ",
"        E F y G H I J K |     L M N O P 3   ",
"        @ Q 0 J R S y T     U V W X Y ; Z   ",
"          E `  ...+.@.!   #.$.%.&.*.=.-.3   ",
"          @ ;.' ..>.,.    '.).!.~.; {.].3   ",
"          ^./.(.  (./._.:.k <.[.1 ; }.t |.  ",
"      1.2.3.4.5.6.5.4.7.8.9.0.#.  ; a.b.c.  ",
"    2.d.e.f.f.6.6.6.f.f.e.d.g.h.  ; i.j.c.  ",
"  k.l.m.^.n.o.p.q.r.o.n.s.t.l.u.  ; v.; w.  ",
"x.y.z.3.6.A.B.    C.B.A.D.E.z.y.F.; G.H.c.  ",
"I.J.K.  L.M.N.  O.P.Q.M.R.S.T.J.U.V.W.X.c.  ",
"Y.f.Z.`. +.+  1 ++@+#+$+ +`.%+f.&+*+=+-+;+  ",
">+,+'+)+.+.+  !+~+{+]+^+.+)+'+,+/+(+_+:+c.  ",
"    1.<+    ; [+c.c.c.c.}+|+1+2+c.c.c.c.;   ",
"                                            "};
