/* XPM */
static const char * pkg_tiles_mode_xpm[] = {
"16 16 3 1",
" 	c None",
".	c #000000",
"+	c #707070",
"                ",
" ......  ...... ",
" .++++.+ .++++.+",
" .+   .+ .+   .+",
" .+   .+ .+   .+",
" .+   .+ .+   .+",
" ......+ ......+",
"  ++++++  ++++++",
"                ",
" ......  ...... ",
" .++++.+ .++++.+",
" .+   .+ .+   .+",
" .+   .+ .+   .+",
" .+   .+ .+   .+",
" ......+ ......+",
"  ++++++  ++++++"};
