/* XPM */
static const char * pkg_3D_xpm[] = {
"32 32 41 1",
" 	c None",
".	c #000000",
"+	c #151515",
"@	c #5A5A5A",
"#	c #727272",
"$	c #3F3F3F",
"%	c #040404",
"&	c #797979",
"*	c #787878",
"=	c #6B6B6B",
"-	c #454545",
";	c #080808",
">	c #060606",
",	c #737373",
"'	c #090909",
")	c #686868",
"!	c #0A0A0A",
"~	c #3E3E3E",
"{	c #020202",
"]	c #343434",
"^	c #2E2E2E",
"/	c #1B1B1B",
"(	c #010101",
"_	c #2A2A2A",
":	c #6A6A6A",
"<	c #565656",
"[	c #636363",
"}	c #2D2D2D",
"|	c #0E0E0E",
"1	c #1C1C1C",
"2	c #434343",
"3	c #121212",
"4	c #050505",
"5	c #575757",
"6	c #242424",
"7	c #030303",
"8	c #545454",
"9	c #0D0D0D",
"0	c #555555",
"a	c #393939",
"b	c #6E6E6E",
"                                ",
"                                ",
"                                ",
"                                ",
"                                ",
"                                ",
"                                ",
"                                ",
"     ......     .........       ",
"    ........    ..........      ",
"    ........+   ...........     ",
"    ..@##$..%&  ...&&*=-;..>    ",
"      &&&,..'&& ...&&&&&)!..~   ",
"      &, {..]&& ...&&    ^../&  ",
"       ....(,&& ...&&     ..'&  ",
"       ...(_:&& ...&&     ..(&& ",
"       .....><  ...&&     ..;&& ",
"         [}..|  ...&&     ..1&& ",
"         &#..{& ...&&    ...2&& ",
"     .    {..3&&...&&   ...4#&& ",
"    .........2&&...........5&&  ",
"    ........6*&&.........78&&&  ",
"     .9%(!60&&& ......7+ab&&&   ",
"      &&&&&&&&&   &&&&&&&&&&    ",
"       &&&&&&     &&&&&&&&&     ",
"                                ",
"                                ",
"                                ",
"                                ",
"                                ",
"                                ",
"                                "};
