/* XPM */
static const char * pkg_tiles_mode_xpm[] = {
"8 8 2 1",
" 	c None",
".	c #000000",
"        ",
" ..  .. ",
" ..  .. ",
"        ",
"        ",
" ..  .. ",
" ..  .. ",
"        "};
