/* XPM */
static const char * cat_system_xpm[] = {
"22 22 248 2",
"  	c None",
". 	c #3A5A8A",
"+ 	c #3465A4",
"@ 	c #8A9BBA",
"# 	c #7F92B2",
"$ 	c #7988AC",
"% 	c #345F99",
"& 	c #537BAE",
"* 	c #8A9BB8",
"= 	c #5E769E",
"- 	c #7484A6",
"; 	c #35609A",
"> 	c #5F76A2",
", 	c #466594",
"' 	c #BBC3D3",
") 	c #9DA7BC",
"! 	c #7796C1",
"~ 	c #9DA9C4",
"{ 	c #5B729D",
"] 	c #8794B1",
"^ 	c #7786A5",
"/ 	c #969BB8",
"( 	c #7A89AF",
"_ 	c #34619E",
": 	c #899DBB",
"< 	c #ABB7CC",
"[ 	c #BEC7D8",
"} 	c #BFC6D6",
"| 	c #C3C8D5",
"1 	c #A3AFC7",
"2 	c #919FBC",
"3 	c #5D739D",
"4 	c #5E749E",
"5 	c #6378A1",
"6 	c #798AAE",
"7 	c #6D7C9C",
"8 	c #7E8FB0",
"9 	c #687BA3",
"0 	c #8A94B5",
"a 	c #A1A1BC",
"b 	c #466FA8",
"c 	c #3D5E92",
"d 	c #BFC7D5",
"e 	c #BEC7D7",
"f 	c #AFB9CF",
"g 	c #ADB7CD",
"h 	c #7183AA",
"i 	c #6377A1",
"j 	c #6578A2",
"k 	c #6679A3",
"l 	c #687AA4",
"m 	c #6A7BA5",
"n 	c #6C7DA6",
"o 	c #6D7EA7",
"p 	c #808CB1",
"q 	c #8490B4",
"r 	c #3E68A4",
"s 	c #476CA0",
"t 	c #C6CDDC",
"u 	c #B2BCD1",
"v 	c #9FABC5",
"w 	c #7283AA",
"x 	c #909DBB",
"y 	c #B2BBD0",
"z 	c #AAB4CB",
"A 	c #94A0BE",
"B 	c #7383AA",
"C 	c #7584AB",
"D 	c #969EBE",
"E 	c #496BA0",
"F 	c #6683AC",
"G 	c #C5CBDB",
"H 	c #B6BFD3",
"I 	c #ACB6CD",
"J 	c #B0B8CF",
"K 	c #A0A7BD",
"L 	c #6F7F9E",
"M 	c #7A87A4",
"N 	c #99A2BB",
"O 	c #9CA6C3",
"P 	c #AAB2CB",
"Q 	c #7D89B0",
"R 	c #848FB4",
"S 	c #888EAB",
"T 	c #3462A0",
"U 	c #5C83B6",
"V 	c #B6C2D7",
"W 	c #B9C1D5",
"X 	c #ACB5CD",
"Y 	c #A5AEC9",
"Z 	c #969FB5",
"` 	c #376099",
" .	c #929BB3",
"..	c #9FA7C4",
"+.	c #A2AAC6",
"@.	c #98A0C0",
"#.	c #B1B6CD",
"$.	c #A2ABBF",
"%.	c #B0B7C8",
"&.	c #C7CBD9",
"*.	c #BFC6D8",
"=.	c #A3ACC7",
"-.	c #9DA6C3",
";.	c #405E8D",
">.	c #4D5575",
",.	c #ACB1CA",
"'.	c #D1D4E3",
").	c #BFC3D8",
"!.	c #BFC1D7",
"~.	c #A7AAC7",
"{.	c #9EA1BE",
"].	c #9A9DB7",
"^.	c #C0C5D9",
"/.	c #ABB2CC",
"(.	c #B0B7CF",
"_.	c #9BA3C2",
":.	c #8E97BA",
"<.	c #858EB5",
"[.	c #C6C9D7",
"}.	c #35619C",
"|.	c #A2A7BE",
"1.	c #E0E2EC",
"2.	c #B7B9D3",
"3.	c #989BC0",
"4.	c #999CC1",
"5.	c #9B9DC2",
"6.	c #AAACCA",
"7.	c #8E95B1",
"8.	c #9299B7",
"9.	c #9DA5C4",
"0.	c #8992B7",
"a.	c #8B93B8",
"b.	c #8C94B9",
"c.	c #C7CBD8",
"d.	c #3B5F94",
"e.	c #CCCEDE",
"f.	c #DADBE8",
"g.	c #9EA0C3",
"h.	c #A4A6C7",
"i.	c #A7A8C3",
"j.	c #9A9BB7",
"k.	c #9395B0",
"l.	c #3464A3",
"m.	c #9EA3C4",
"n.	c #9398BD",
"o.	c #9499BE",
"p.	c #BDC0D7",
"q.	c #858FA9",
"r.	c #3464A2",
"s.	c #7F86A0",
"t.	c #DCDDEA",
"u.	c #C0C0D8",
"v.	c #A6A5C8",
"w.	c #B2B1CF",
"x.	c #4A5D84",
"y.	c #5274A8",
"z.	c #9A9EC1",
"A.	c #9C9FC2",
"B.	c #CECFE0",
"C.	c #939DB4",
"D.	c #4D638C",
"E.	c #5A6D93",
"F.	c #8C92AD",
"G.	c #DEDEEA",
"H.	c #E0E0EB",
"I.	c #ABAACB",
"J.	c #ADABCC",
"K.	c #9698B4",
"L.	c #375F98",
"M.	c #657EAC",
"N.	c #AEB0CD",
"O.	c #A4A4C7",
"P.	c #A7A6C9",
"Q.	c #C3C3DA",
"R.	c #DBDAE9",
"S.	c #DDDCEA",
"T.	c #D2D0E3",
"U.	c #CFCCE1",
"V.	c #B3AFD0",
"W.	c #B8B4D3",
"X.	c #8389A7",
"Y.	c #3364A3",
"Z.	c #436EA7",
"`.	c #ACB0C7",
" +	c #ADABCD",
".+	c #ACA9CC",
"++	c #AEAACD",
"@+	c #AFABCE",
"#+	c #B1ADCF",
"$+	c #B3AED0",
"%+	c #B4AFD0",
"&+	c #B8B2D2",
"*+	c #D7D3E5",
"=+	c #D7D3E6",
"-+	c #BBB4D4",
";+	c #BDB5D5",
">+	c #BAB5CF",
",+	c #8C93B3",
"'+	c #3463A1",
")+	c #A2A9C5",
"!+	c #B7B5D3",
"~+	c #B2AECF",
"{+	c #BEBBD6",
"]+	c #C0BCD8",
"^+	c #B8B2D3",
"/+	c #BAB4D4",
"(+	c #BCB5D5",
"_+	c #BEB6D6",
":+	c #C6C0DC",
"<+	c #DED9EA",
"[+	c #B9B3CD",
"}+	c #C8BEDC",
"|+	c #C7BDDC",
"1+	c #A2A1BB",
"2+	c #36629D",
"3+	c #33609B",
"4+	c #476DA4",
"5+	c #BFBAD8",
"6+	c #ADACC6",
"7+	c #456290",
"8+	c #697CA5",
"9+	c #C2BCD6",
"0+	c #C4BBD9",
"a+	c #C4BAD9",
"b+	c #C7BED9",
"c+	c #949CBE",
"d+	c #385F9A",
"e+	c #335E97",
"f+	c #8793B9",
"g+	c #ADB1D2",
"h+	c #747B9A",
"i+	c #305A92",
"j+	c #325C93",
"k+	c #446DA8",
"l+	c #5175AD",
"m+	c #2F5C96",
"n+	c #284D7E",
"o+	c #CFC5E0",
"p+	c #C9BEDD",
"q+	c #5D7DB2",
"r+	c #22426C",
"s+	c #2C568B",
"t+	c #3F6599",
"u+	c #2C5285",
"v+	c #305E98",
"w+	c #CCC1DE",
"x+	c #2D578F",
"y+	c #2F5B95",
"                  . + + + +                 ",
"                  + @ # $ +       +         ",
"        % &       + * = - +     ; > +       ",
"      , ' ) + + + ! ~ { ] + + + ^ / ( +     ",
"    _ : < [ } | 1 2 3 4 5 6 7 8 9 0 a b     ",
"      c d e f g h i j k l m n o p q r       ",
"        s t u v w x y y z A B C D E         ",
"        F G H I J K L M N O P Q R S T       ",
"+ + + U V W X Y Z `        ...+.@.#.+ + + + ",
"+ $.%.&.*.=.-.&.;.        >.,.'.).!.~.{.].+ ",
"+ ^./.(._.:.<.[.}.          |.1.2.3.4.5.6.+ ",
"+ 7.8.9.0.a.b.c.d.          e.f.g.h.i.j.k.+ ",
"l.+ + + m.n.o.p.q.r.      s.t.u.v.w.x.+ + + ",
"        y.z.A.g.B.C.D.E.F.G.H.I.J.K.L.      ",
"      l.M.N.O.v.P.Q.R.S.T.U.U.V.W.X.l.      ",
"    Y.Z.`. +.+++@+#+$+%+&+*+=+-+;+>+,++     ",
"    '+)+!+~+{+]+^+^+/+(+_+:+<+[+}+|+1+2+    ",
"    3+4+5+6++ 7+8+9+0+a+b+c+d+e+f+g+h+i+    ",
"      j+k+l+m+  n++ o+p+p+q+r+  s+t+u+      ",
"          v+      + S.w+S.+                 ",
"                  + S.S.S.+                 ",
"                  x++ + + y+                "};
