/* XPM */
static const char * pkg_installed_upgradable_xpm[] = {
"32 32 522 2",
"  	c None",
". 	c #949594",
"+ 	c #909090",
"@ 	c #8F8F8F",
"# 	c #8D8D8D",
"$ 	c #8B8B8B",
"% 	c #898989",
"& 	c #878787",
"* 	c #868686",
"= 	c #848382",
"- 	c #B76F2C",
"; 	c #CB6913",
"> 	c #CE5F05",
", 	c #CE5C00",
"' 	c #CD5F04",
") 	c #C66512",
"! 	c #986B47",
"~ 	c #7C7C7C",
"{ 	c #959595",
"] 	c #F1F2EF",
"^ 	c #F5F6F3",
"/ 	c #F4F5F3",
"( 	c #F4F5F2",
"_ 	c #F4F4F2",
": 	c #DFB994",
"< 	c #D16911",
"[ 	c #E0811C",
"} 	c #F0A132",
"| 	c #F7AE3B",
"1 	c #F8B13E",
"2 	c #F7AC3B",
"3 	c #F09F32",
"4 	c #DD7F1E",
"5 	c #C36110",
"6 	c #A2A2A2",
"7 	c #F2F3F0",
"8 	c #B9BBC8",
"9 	c #3E3F8E",
"0 	c #545592",
"a 	c #535491",
"b 	c #525290",
"c 	c #515190",
"d 	c #52528F",
"e 	c #51518F",
"f 	c #50508F",
"g 	c #51518E",
"h 	c #53548D",
"i 	c #52538D",
"j 	c #795659",
"k 	c #CF6005",
"l 	c #EE9C2F",
"m 	c #F8AC3D",
"n 	c #F79A38",
"o 	c #F79537",
"p 	c #F79938",
"q 	c #F8A63B",
"r 	c #E9972E",
"s 	c #CC5D00",
"t 	c #AAAAA9",
"u 	c #F0F2EE",
"v 	c #A7AAC0",
"w 	c #6A6A91",
"x 	c #7E7E96",
"y 	c #7D7D95",
"z 	c #7C7C94",
"A 	c #7A7A93",
"B 	c #797992",
"C 	c #777790",
"D 	c #767690",
"E 	c #75758F",
"F 	c #74748D",
"G 	c #73738D",
"H 	c #717087",
"I 	c #CE660D",
"J 	c #EE9C2E",
"K 	c #F8A33B",
"L 	c #FBD8B7",
"M 	c #FFFFFF",
"N 	c #FBD5B0",
"O 	c #F89E39",
"P 	c #E7952B",
"Q 	c #CC5C00",
"R 	c #AFB0AF",
"S 	c #EFF0ED",
"T 	c #9697B8",
"U 	c #67678C",
"V 	c #71718B",
"W 	c #70708B",
"X 	c #6E6E89",
"Y 	c #6D6D88",
"Z 	c #6B6B86",
"` 	c #AE672B",
" .	c #E1811D",
"..	c #F8AB3C",
"+.	c #FBD5B2",
"@.	c #F8A43A",
"#.	c #DA7A14",
"$.	c #B8B8B7",
"%.	c #EEEFEB",
"&.	c #8284AD",
"*.	c #646488",
"=.	c #6A6A86",
"-.	c #696985",
";.	c #686884",
">.	c #676784",
",.	c #666683",
"'.	c #CA6510",
").	c #F69130",
"!.	c #FAC796",
"~.	c #FBD4AE",
"{.	c #FAC898",
"].	c #F79837",
"^.	c #E7962A",
"/.	c #BFBFBE",
"(.	c #ECEDE9",
"_.	c #7173A4",
":.	c #646486",
"<.	c #696986",
"[.	c #676785",
"}.	c #666684",
"|.	c #656583",
"1.	c #646483",
"2.	c #636381",
"3.	c #626281",
"4.	c #616181",
"5.	c #606080",
"6.	c #F7AB3B",
"7.	c #F69132",
"8.	c #F9B97B",
"9.	c #FBCEA3",
"0.	c #F8B778",
"a.	c #F78E2A",
"b.	c #F79333",
"c.	c #EFA033",
"d.	c #CD5B00",
"e.	c #C5C5C3",
"f.	c #EAECE7",
"g.	c #61639D",
"h.	c #5F5F80",
"i.	c #5D5D7F",
"j.	c #5C5C7E",
"k.	c #F8AD3D",
"l.	c #F79434",
"m.	c #F58416",
"n.	c #F6A352",
"o.	c #F9BD82",
"p.	c #F8A85B",
"q.	c #F57900",
"r.	c #F57A01",
"s.	c #F68517",
"t.	c #F7912E",
"u.	c #F1A235",
"v.	c #CACBC9",
"w.	c #E8EAE5",
"x.	c #575998",
"y.	c #606081",
"z.	c #5E5E80",
"A.	c #5C5C7F",
"B.	c #5B5B7E",
"C.	c #5A5A7E",
"D.	c #5A5A7D",
"E.	c #58587C",
"F.	c #545479",
"G.	c #CB5D02",
"H.	c #F6A531",
"I.	c #F78F29",
"J.	c #F68415",
"K.	c #F57A02",
"L.	c #EB9929",
"M.	c #8C8C8C",
"N.	c #CFD0CD",
"O.	c #E7E9E4",
"P.	c #535595",
"Q.	c #5B5B7F",
"R.	c #59597E",
"S.	c #59597D",
"T.	c #58587D",
"U.	c #57577C",
"V.	c #55557C",
"W.	c #474770",
"X.	c #31315F",
"Y.	c #BE5B0C",
"Z.	c #F0921D",
"`.	c #F57E04",
" +	c #F57D04",
".+	c #E69426",
"++	c #8E8E8E",
"@+	c #D3D5D2",
"#+	c #E5E7E2",
"$+	c #525393",
"%+	c #58587F",
"&+	c #58587E",
"*+	c #57577D",
"=+	c #56567D",
"-+	c #54547C",
";+	c #53537B",
">+	c #4D4D76",
",+	c #393967",
"'+	c #313160",
")+	c #313161",
"!+	c #744334",
"~+	c #D87814",
"{+	c #F79116",
"]+	c #EC9222",
"^+	c #D87712",
"/+	c #8E8E8D",
"(+	c #D8D8D6",
"_+	c #E3E6E0",
":+	c #505192",
"<+	c #54547D",
"[+	c #52527B",
"}+	c #4F4F79",
"|+	c #41416E",
"1+	c #353565",
"2+	c #343465",
"3+	c #353566",
"4+	c #353567",
"5+	c #BA580D",
"6+	c #EA9020",
"7+	c #F6870D",
"8+	c #F58A13",
"9+	c #D88B26",
"0+	c #DCDDDA",
"a+	c #E1E4DE",
"b+	c #4C4D90",
"c+	c #51517C",
"d+	c #50507C",
"e+	c #50507B",
"f+	c #4E4E7B",
"g+	c #464674",
"h+	c #39396B",
"i+	c #373769",
"j+	c #38386A",
"k+	c #3A3A6C",
"l+	c #544058",
"m+	c #C65A04",
"n+	c #E38E23",
"o+	c #F79117",
"p+	c #EF9425",
"q+	c #DC9433",
"r+	c #C65B05",
"s+	c #8A8A89",
"t+	c #DFE0DE",
"u+	c #DFE1DC",
"v+	c #48498E",
"w+	c #4B4B7A",
"x+	c #444474",
"y+	c #3C3C6F",
"z+	c #3B3B6D",
"A+	c #3B3B6E",
"B+	c #3C3C6E",
"C+	c #3C3C70",
"D+	c #3D3D70",
"E+	c #3D3D71",
"F+	c #3E3E71",
"G+	c #3E3E72",
"H+	c #533F55",
"I+	c #AF5313",
"J+	c #D17518",
"K+	c #DD8C25",
"L+	c #EC9727",
"M+	c #F19927",
"N+	c #E09029",
"O+	c #DD912E",
"P+	c #D0802B",
"Q+	c #C66D25",
"R+	c #765D47",
"S+	c #E3E3E1",
"T+	c #DCE0D9",
"U+	c #41418B",
"V+	c #404072",
"W+	c #3F3F73",
"X+	c #404074",
"Y+	c #404075",
"Z+	c #414175",
"`+	c #414176",
" @	c #424276",
".@	c #424277",
"+@	c #434378",
"@@	c #6E433A",
"#@	c #A04F19",
"$@	c #C15706",
"%@	c #CB5A00",
"&@	c #BF5706",
"*@	c #B05F24",
"=@	c #B18762",
"-@	c #CCCECB",
";@	c #585958",
">@	c #848584",
",@	c #E5E6E3",
"'@	c #DBDED6",
")@	c #3C3C88",
"!@	c #444479",
"~@	c #44447A",
"{@	c #45457B",
"]@	c #46467C",
"^@	c #47477D",
"/@	c #47477E",
"(@	c #48487E",
"_@	c #48487F",
":@	c #49497F",
"<@	c #3D3D7E",
"[@	c #8183AA",
"}@	c #CFD2CC",
"|@	c #D1D2CF",
"1@	c #575756",
"2@	c #808180",
"3@	c #E7E9E6",
"4@	c #D9DCD5",
"5@	c #383987",
"6@	c #46467D",
"7@	c #494980",
"8@	c #4A4A81",
"9@	c #4B4B82",
"0@	c #4B4B83",
"a@	c #4C4C84",
"b@	c #4D4D85",
"c@	c #454583",
"d@	c #7073A3",
"e@	c #CDD1CB",
"f@	c #D3D6D1",
"g@	c #525252",
"h@	c #EAEBE8",
"i@	c #D7DAD2",
"j@	c #202184",
"k@	c #3B3C87",
"l@	c #3B3C88",
"m@	c #3B3B88",
"n@	c #3B3C89",
"o@	c #3C3C89",
"p@	c #3C3C8A",
"q@	c #3C3D8A",
"r@	c #3D3D8A",
"s@	c #373889",
"t@	c #66689F",
"u@	c #CBCFC8",
"v@	c #D7D9D5",
"w@	c #4D4D4D",
"x@	c #787878",
"y@	c #EAECE9",
"z@	c #D1D4CE",
"A@	c #CED2CA",
"B@	c #CED1CA",
"C@	c #CDD1C9",
"D@	c #CDD0C9",
"E@	c #CCD0C8",
"F@	c #CCCFC8",
"G@	c #CBCFC7",
"H@	c #CBCEC7",
"I@	c #CACEC6",
"J@	c #AEB0AB",
"K@	c #B3B6AF",
"L@	c #C9CCC5",
"M@	c #C8CCC4",
"N@	c #C8CBC4",
"O@	c #C7CBC4",
"P@	c #C7CAC3",
"Q@	c #C6CAC3",
"R@	c #C6C9C3",
"S@	c #C5C9C3",
"T@	c #C5C8C2",
"U@	c #C4C8C2",
"V@	c #C5C9C2",
"W@	c #D9DBD7",
"X@	c #4A4A4A",
"Y@	c #D4D6D2",
"Z@	c #EBECE9",
"`@	c #EAECE8",
" #	c #E9EBE7",
".#	c #E8EAE6",
"+#	c #E7E9E5",
"@#	c #E6E8E5",
"##	c #E6E8E4",
"$#	c #E5E7E3",
"%#	c #E4E6E2",
"&#	c #E3E6E1",
"*#	c #E2E5E1",
"=#	c #E2E4E0",
"-#	c #E1E3DF",
";#	c #E0E2DE",
">#	c #DFE2DD",
",#	c #DEE1DC",
"'#	c #DEE0DC",
")#	c #DDDFDB",
"!#	c #DCDEDA",
"~#	c #C0C2BE",
"{#	c #4D4D4C",
"]#	c #747474",
"^#	c #6E6E6E",
"/#	c #6C6C6C",
"(#	c #6A6A6A",
"_#	c #686868",
":#	c #676767",
"<#	c #656565",
"[#	c #636363",
"}#	c #616161",
"|#	c #5F5F5F",
"1#	c #5E5E5E",
"2#	c #5C5C5C",
"3#	c #5A5A5A",
"4#	c #585858",
"5#	c #565656",
"6#	c #555555",
"7#	c #535353",
"8#	c #515151",
"9#	c #4F4F4F",
"0#	c #4C4C4C",
"a#	c #484848",
"b#	c #4F504E",
"c#	c #838581",
"d#	c #ACAFA9",
"e#	c #ADB0AA",
"f#	c #8B8E89",
"g#	c #8D908C",
"h#	c #ABADAA",
"i#	c #A7A7A6",
"j#	c #A1A1A0",
"k#	c #7C7D7C",
"l#	c #525451",
"m#	c #9B9E9A",
"n#	c #AFB2AC",
"o#	c #B1B3AE",
"p#	c #AEB1AB",
"q#	c #A8AAA5",
"r#	c #9D9F9D",
"s#	c #939392",
"t#	c #A1A1A1",
"u#	c #A5A5A5",
"v#	c #A8A8A8",
"w#	c #595959",
"x#	c #595958",
"y#	c #585857",
"z#	c #575757",
"A#	c #515150",
"B#	c #505050",
"C#	c #4E4E4E",
"D#	c #AAAAAA",
"E#	c #A7A7A7",
"F#	c #ACACAC",
"G#	c #DCE0D8",
"H#	c #DFE3DB",
"I#	c #DFE3DA",
"J#	c #E0E3DA",
"K#	c #E0E3DB",
"L#	c #E1E3DB",
"M#	c #E0E4DB",
"N#	c #E0E4DC",
"O#	c #E1E4DB",
"P#	c #E1E4DC",
"Q#	c #DDE2D9",
"R#	c #545654",
"S#	c #949693",
"T#	c #9F9F9E",
"U#	c #9D9D9D",
"V#	c #9A9B9A",
"W#	c #DADDD5",
"X#	c #9B9B9A",
"Y#	c #9B9B9B",
"Z#	c #9A9B99",
"`#	c #959792",
" $	c #636463",
".$	c #BBBDB8",
"+$	c #9FA09F",
"@$	c #9C9D9C",
"#$	c #C9CCC6",
"$$	c #A0A19F",
"%$	c #BCC0B9",
"&$	c #5C5D5C",
"*$	c #ABABAB",
"=$	c #676867",
"-$	c #BDC0BC",
";$	c #A7A9A6",
">$	c #AEAEAE",
",$	c #ACACAB",
"'$	c #A4A4A3",
")$	c #B1B2B0",
"!$	c #B4B6B1",
"~$	c #AAABAA",
"{$	c #BEC1BC",
"]$	c #606160",
"^$	c #A4A7A2",
"/$	c #959991",
"($	c #7A7D77",
"_$	c #A3A6A0",
":$	c #777874",
"<$	c #858782",
"[$	c #989B94",
"}$	c #989B95",
"|$	c #D2D4CD",
"1$	c #868983",
"2$	c #848882",
"3$	c #9EA19A",
"4$	c #A6A9A4",
"5$	c #D4D9D1",
"6$	c #E0E5DC",
"7$	c #E1E5DE",
"8$	c #E2E5DE",
"9$	c #E1E6DD",
"0$	c #E2E6DE",
"a$	c #E1E6DF",
"b$	c #E2E7DE",
"c$	c #E2E7DD",
"d$	c #E3E7DE",
"e$	c #E3E8DE",
"f$	c #E3E8DF",
"g$	c #E4E8DF",
"h$	c #E5E8E0",
"i$	c #E4E9E0",
"j$	c #E5E9E0",
"k$	c #E5E9E1",
"l$	c #DCE1D9",
"m$	c #575857",
"n$	c #5A5B5A",
"o$	c #595A59",
"p$	c #555655",
"q$	c #535453",
"r$	c #525352",
"s$	c #515251",
"t$	c #525251",
"u$	c #535352",
"v$	c #545453",
"w$	c #4D4E4D",
"      . + @ @ @ @ @ @ @ @ @ @ # $ % & * = - ; > , ' ) ! ~       ",
"      { ] ^ ^ ^ ^ ^ ^ / / / / ( ( _ _ : < [ } | 1 2 3 4 5       ",
"      6 7 8 9 0 0 a b c d e f g h i j k l m n o o o p q r s     ",
"      t u v w x y z A B C D E F G H I J K o o L M N o o O P Q   ",
"      R S T U D E F G V W X Y Y Z `  ...o o o L M +.o o o @.#.  ",
"      $.%.&.*.X Y Y Z =.-.;.>.,.,.'.3 p o o ).!.~.{.o o o ].^., ",
"      /.(._.:.<.[.>.}.|.1.2.3.4.5.' 6.o o o 7.8.9.0.a.b.o o c.d.",
"      e.f.g.:.1.1.3.4.4.h.h.i.i.j., k.o o l.m.n.o.p.q.r.s.t.u., ",
"      v.w.x.4.y.h.z.A.A.B.C.D.E.F.G.H.I.J.K.q.q.q.q.q.q.q.q.L., ",
"    M.N.O.P.A.Q.Q.R.S.T.U.U.V.W.X.Y.Z.`.q.q.q.o.M 8.q.q.q. +.+, ",
"    ++@+#+$+%+&+*+=+V.-+;+>+,+'+)+!+~+{+q.q.q.o.M 8.q.q.q.]+^+  ",
"    /+(+_+:+<+-+-+[+[+}+|+1+2+3+3+4+5+6+7+q.q.q.q.q.q.q.8+9+,   ",
"    # 0+a+b+c+d+e+f+g+h+i+j+j+h+h+k+l+m+n+o+ +q.q.q. +p+q+r+    ",
"    s+t+u+v+f+w+x+y+z+A+B+y+C+D+E+F+G+H+I+J+K+L+M+N+O+P+Q+R+    ",
"    & S+T+U+V+E+G+G+W+W+X+X+Y+Z+`+ @.@.@+@@@#@$@%@&@*@=@-@;@    ",
"    >@,@'@)@`+ @.@.@+@+@!@!@~@{@{@]@]@^@^@/@(@_@:@<@[@}@|@1@    ",
"    2@3@4@5@{@]@]@6@^@/@(@_@:@7@7@8@8@9@9@0@a@a@b@c@d@e@f@g@    ",
"    ~ h@i@j@k@l@m@m@l@n@o@o@o@n@n@o@p@q@q@q@r@q@q@s@t@u@v@w@    ",
"    x@y@z@A@B@C@D@D@E@F@G@H@I@J@K@L@M@N@O@P@Q@R@S@T@U@V@W@X@    ",
"    x@Y@Z@Z@`@h@ #.#.#+#@###$##+%#&#*#=#-#-#;#>#,#'#)#!#~#{#    ",
"      ]#^#/#(#_#:#<#[#}#|#1#2#3#4#5#6#7#8#9#w@0#X@a#a#a#w@      ",
"                  b#c#d#e#f#f#f#f#f#g#h#i#j#k#                  ",
"                  l#m#n#o#n#p#e#e#p#p#e#q#r#s#6 t#u#v#u#        ",
"      _#[#}#|#1#2#w#4#x#w#y#z#6#7#8#A#B#9#w@0#0#0#w@C#<#D#E#F#  ",
"      [#G#H#H#I#H#H#J#K#J#K#L#M#M#M#N#N#M#N#M#N#O#P#Q#R#    v#D#",
"      S#T#U#U#U#U#U#U#U#U#U#U#U#U#U#U#U#U#V#W#X#Y#Y#Z#`#    6 v#",
"     $.$u#u#u#+$@$@$@$@$@$@$@$@$@$@$u#u#u#u##$$$u#u#u#%$&$E#*$  ",
"    =$-$D#D#D#;$>$>$>$>$>$>$>$>$>$,$'$>$>$>$)$!$~$D#D#{$]$      ",
"    ^$/$($($($_$:$:$:$:$:$:$:$:$:$<$[$($($($}$|$1$2$2$3$4$      ",
"  |#5$N#N#6$6$7$8$9$0$9$a$b$b$c$b$d$e$f$g$g$h$i$j$i$i$k$l$8#    ",
"  w#m$n$o$m$p$q$r$r$r$s$s$s$s$t$t$t$t$t$t$t$t$u$u$u$u$v$B#w$    ",
"                                                                "};
