/* XPM */
static const char * pkg_available_locked_xpm[] = {
"32 32 518 2",
"  	c None",
". 	c #3E4174",
"+ 	c #3F4275",
"@ 	c #3D3E71",
"# 	c #3A3B6C",
"$ 	c #3C3E71",
"% 	c #3E4074",
"& 	c #3C3F73",
"* 	c #3B3D71",
"= 	c #434475",
"- 	c #8588A7",
"; 	c #BFC4D6",
"> 	c #E3E7EE",
", 	c #F1F2F5",
"' 	c #F6F7F9",
") 	c #E0E6EF",
"! 	c #C6D2E4",
"~ 	c #A4B2CD",
"{ 	c #6B739B",
"] 	c #3E3F71",
"^ 	c #393B6F",
"/ 	c #3F4172",
"( 	c #A0A6C0",
"_ 	c #EAEEF2",
": 	c #D6DDE5",
"< 	c #D9DDE2",
"[ 	c #FEFEFE",
"} 	c #959BA2",
"| 	c #BFD4EA",
"1 	c #C0D3E8",
"2 	c #C6D7EA",
"3 	c #C6D5E7",
"4 	c #7A86AB",
"5 	c #3D3E70",
"6 	c #3D3D71",
"7 	c #595B86",
"8 	c #EAECF0",
"9 	c #E8EBEE",
"0 	c #CACED3",
"a 	c #C2CAD3",
"b 	c #DAE8F6",
"c 	c #FDFDFD",
"d 	c #C5C7C8",
"e 	c #8A9095",
"f 	c #ABBAC9",
"g 	c #BCD2EA",
"h 	c #B4CBE6",
"i 	c #ACC4E1",
"j 	c #DEE5ED",
"k 	c #EFF0F2",
"l 	c #C6CCD8",
"m 	c #4B4E7C",
"n 	c #74779C",
"o 	c #F1F2F4",
"p 	c #B4BBC3",
"q 	c #BEC9D5",
"r 	c #C4CDD7",
"s 	c #A4B0BC",
"t 	c #D7E5F2",
"u 	c #ACAEB1",
"v 	c #AAB7C6",
"w 	c #D0E1F4",
"x 	c #B5C1CE",
"y 	c #B6CAE0",
"z 	c #B9CFE9",
"A 	c #DFE6ED",
"B 	c #CDD0D3",
"C 	c #B5BDC5",
"D 	c #E5E6E8",
"E 	c #E8E9EC",
"F 	c #5D6188",
"G 	c #5A5D88",
"H 	c #FBFBFC",
"I 	c #C1CAD4",
"J 	c #CAE0F6",
"K 	c #FCFDFD",
"L 	c #E2E3E5",
"M 	c #D8E7F4",
"N 	c #E0EFFE",
"O 	c #D0DDEB",
"P 	c #DAEAFA",
"Q 	c #D5E5F7",
"R 	c #CDE0F3",
"S 	c #CBDEF1",
"T 	c #C2CEDB",
"U 	c #A9B6C4",
"V 	c #939BA4",
"W 	c #E5EAEE",
"X 	c #F7F7F7",
"Y 	c #EEEEEE",
"Z 	c #E7E7E9",
"` 	c #4C4E7A",
" .	c #454677",
"..	c #F1F2F3",
"+.	c #ECECED",
"@.	c #C3C4C6",
"#.	c #AFB5BD",
"$.	c #E2F0FF",
"%.	c #DFEDFC",
"&.	c #D8E8F9",
"*.	c #D0E2F5",
"=.	c #BFCEDF",
"-.	c #C3C9CF",
";.	c #FCFCFC",
">.	c #EFEFEF",
",.	c #E9E9E9",
"'.	c #D3D3D8",
").	c #3D3F71",
"!.	c #A5A8C0",
"~.	c #FFFFFF",
"{.	c #D2D3D5",
"].	c #ADB7C2",
"^.	c #CDDAE6",
"/.	c #E1F0FF",
"(.	c #DAEAFB",
"_.	c #D1E4F6",
":.	c #CEDFF3",
"<.	c #F0F1F3",
"[.	c #F4F5F5",
"}.	c #F8F9F9",
"|.	c #F2F2F2",
"1.	c #E5E5E5",
"2.	c #E6E6E6",
"3.	c #7D819A",
"4.	c #424475",
"5.	c #A3A6A8",
"6.	c #9FABB6",
"7.	c #D5E5F4",
"8.	c #E0EFFF",
"9.	c #DBEBFC",
"0.	c #D1E4F7",
"a.	c #EAEDF1",
"b.	c #C8CACD",
"c.	c #768697",
"d.	c #A9B1BA",
"e.	c #C2C5CA",
"f.	c #E3E4E5",
"g.	c #F4F4F4",
"h.	c #E7E7E7",
"i.	c #DDDDDD",
"j.	c #DCDCDD",
"k.	c #3C3E6E",
"l.	c #8689A7",
"m.	c #BBBDC0",
"n.	c #B4C5D6",
"o.	c #DEEEFF",
"p.	c #DFEEFF",
"q.	c #DFEFFF",
"r.	c #D9EAFB",
"s.	c #D0E3F6",
"t.	c #BCC6D2",
"u.	c #C6CBD1",
"v.	c #D6DEE7",
"w.	c #ABBED4",
"x.	c #869DB7",
"y.	c #819CB9",
"z.	c #A1AAB4",
"A.	c #E8E8E8",
"B.	c #DBDBDB",
"C.	c #E0E0E0",
"D.	c #626487",
"E.	c #3E4173",
"F.	c #CDCEDA",
"G.	c #CCCED0",
"H.	c #CDCFD1",
"I.	c #899CB0",
"J.	c #CCE2FB",
"K.	c #DCEDFF",
"L.	c #DDEDFE",
"M.	c #D5E7FA",
"N.	c #EFF2F4",
"O.	c #F0F1F2",
"P.	c #F3F5F6",
"Q.	c #DADFE5",
"R.	c #E3E6E9",
"S.	c #D3D3D4",
"T.	c #D4D5D5",
"U.	c #9A9BAB",
"V.	c #3A3D6F",
"W.	c #414476",
"X.	c #EFEFF3",
"Y.	c #818B96",
"Z.	c #88A2BE",
"`.	c #93A8C0",
" +	c #B6D0EB",
".+	c #C4DDF7",
"++	c #D0E6FC",
"@+	c #DDEEFF",
"#+	c #DCEDFE",
"$+	c #D7E8FB",
"%+	c #CFE3F7",
"&+	c #E3E9F0",
"*+	c #B0B5BA",
"=+	c #C3C7CB",
"-+	c #CFD0D0",
";+	c #79899C",
">+	c #A3A7B2",
",+	c #37396B",
"'+	c #3F4072",
")+	c #F8F8FA",
"!+	c #95A9C0",
"~+	c #B2C8E0",
"{+	c #A9C7E8",
"]+	c #B2CFED",
"^+	c #BBD6F2",
"/+	c #C2DCF6",
"(+	c #CCE2F9",
"_+	c #D5E8FB",
":+	c #D3E6FA",
"<+	c #CEE2F7",
"[+	c #C8DDF3",
"}+	c #F7F8F8",
"|+	c #92A1B2",
"1+	c #D6D6D6",
"2+	c #CBCBCB",
"3+	c #8E9CAE",
"4+	c #393B6E",
"5+	c #3A3A6E",
"6+	c #E0E3E8",
"7+	c #ECEDEF",
"8+	c #C7CCD1",
"9+	c #9DBCDF",
"0+	c #AAC8E9",
"a+	c #B1CEED",
"b+	c #B8D3F0",
"c+	c #BCD6F3",
"d+	c #C0D9F4",
"e+	c #C5DCF4",
"f+	c #C7DDF4",
"g+	c #C4DBF2",
"h+	c #C9DCF2",
"i+	c #EBEBEB",
"j+	c #969FA9",
"k+	c #B2B7BC",
"l+	c #535F6D",
"m+	c #8CA1BB",
"n+	c #39396D",
"o+	c #3C3D70",
"p+	c #CCD9EA",
"q+	c #7D9AB9",
"r+	c #A2ACB8",
"s+	c #A6B7CB",
"t+	c #E1E8F0",
"u+	c #CBD4DD",
"v+	c #C3D4E7",
"w+	c #B0CDEC",
"x+	c #B2CEED",
"y+	c #AFCCEB",
"z+	c #ACC9EA",
"A+	c #A7C5E6",
"B+	c #D4D8DC",
"C+	c #F1F1F1",
"D+	c #D1D1D2",
"E+	c #B1B5BA",
"F+	c #546F90",
"G+	c #889EBD",
"H+	c #B9C8DE",
"I+	c #90B2D7",
"J+	c #86ABD4",
"K+	c #8DA2B8",
"L+	c #F3F3F4",
"M+	c #B8C9DC",
"N+	c #A5C4E6",
"O+	c #A3C2E5",
"P+	c #9FBFE3",
"Q+	c #99BBE0",
"R+	c #91AFCF",
"S+	c #BABEC3",
"T+	c #949AA1",
"U+	c #9FA6AD",
"V+	c #F9F9F9",
"W+	c #F5F5F5",
"X+	c #EAEAEA",
"Y+	c #DEDEDE",
"Z+	c #D3D3D3",
"`+	c #B3B5B6",
" @	c #426083",
".@	c #7C90B1",
"+@	c #383A6E",
"@@	c #3C3F71",
"#@	c #96A7C6",
"$@	c #9DB9DA",
"%@	c #7EA5D0",
"&@	c #C1D2E4",
"*@	c #FBFBFB",
"=@	c #B2C3D4",
"-@	c #9BBCE0",
";@	c #97B9DE",
">@	c #93B6DC",
",@	c #8FB2DA",
"'@	c #89AED6",
")@	c #799DC5",
"!@	c #79A0CC",
"~@	c #739CCA",
"{@	c #EBEDEE",
"]@	c #ECECEC",
"^@	c #848484",
"/@	c #393939",
"(@	c #2D2D2D",
"_@	c #0F1316",
":@	c #161F29",
"<@	c #4F5C7A",
"[@	c #393A6C",
"}@	c #646F99",
"|@	c #B1C8E1",
"1@	c #749DCB",
"2@	c #D6DDE4",
"3@	c #E8EAED",
"4@	c #98B1CE",
"5@	c #88ADD6",
"6@	c #83A9D3",
"7@	c #78A0CD",
"8@	c #719AC9",
"9@	c #6994C5",
"0@	c #A4ADB8",
"a@	c #707070",
"b@	c #7B7B7B",
"c@	c #D2D2D2",
"d@	c #BBBBBB",
"e@	c #707072",
"f@	c #12121D",
"g@	c #B2C6DF",
"h@	c #779ECA",
"i@	c #9DAEC0",
"j@	c #FAFAFA",
"k@	c #FBFCFC",
"l@	c #6C7C90",
"m@	c #7CA3CF",
"n@	c #6D98C7",
"o@	c #6792C4",
"p@	c #5F8DC0",
"q@	c #505A66",
"r@	c #858585",
"s@	c #BEBEBE",
"t@	c #3F3F3F",
"u@	c #1E1E1E",
"v@	c #1C1D1E",
"w@	c #4D4D4E",
"x@	c #B1B1B1",
"y@	c #6B7BA5",
"z@	c #9EBAD9",
"A@	c #6892C2",
"B@	c #C0C4C9",
"C@	c #F6F6F6",
"D@	c #CED0D3",
"E@	c #6589B1",
"F@	c #709AC9",
"G@	c #6C97C7",
"H@	c #6893C4",
"I@	c #638FC1",
"J@	c #5C8ABE",
"K@	c #5585BA",
"L@	c #343638",
"M@	c #C2C2C2",
"N@	c #212121",
"O@	c #BCBCBC",
"P@	c #909295",
"Q@	c #6C84A5",
"R@	c #525E89",
"S@	c #2E2E2E",
"T@	c #AAAAAA",
"U@	c #000000",
"V@	c #3C3F72",
"W@	c #9BB2D0",
"X@	c #80A3CC",
"Y@	c #5F88B6",
"Z@	c #CED0D2",
"`@	c #B4B8BB",
" #	c #6089B7",
".#	c #6490C2",
"+#	c #618EC0",
"@#	c #5D8ABE",
"##	c #5886BB",
"$#	c #5282B8",
"%#	c #4B7DB5",
"&#	c #2C2C2C",
"*#	c #C0C0C0",
"=#	c #191919",
"-#	c #989A9C",
";#	c #4C5E75",
">#	c #7385A5",
",#	c #393B6D",
"'#	c #161616",
")#	c #C1C0C0",
"!#	c #474B7C",
"~#	c #A1B9D5",
"{#	c #6E96C4",
"]#	c #B3BAC2",
"^#	c #9EA3A8",
"/#	c #48627E",
"(#	c #5A89BD",
"_#	c #5887BC",
":#	c #5584BA",
"<#	c #5181B8",
"[#	c #4C7EB5",
"}#	c #4779B2",
"|#	c #28486D",
"1#	c #141312",
"2#	c #9B9794",
"3#	c #201D1C",
"4#	c #0B0B07",
"5#	c #040302",
"6#	c #050403",
"7#	c #2F2921",
"8#	c #A8A39E",
"9#	c #1A130B",
"0#	c #2F335E",
"a#	c #4E5785",
"b#	c #9CB5D3",
"c#	c #A8B3C0",
"d#	c #CDCDCD",
"e#	c #CFCFCF",
"f#	c #687685",
"g#	c #4F80B7",
"h#	c #4E7FB6",
"i#	c #4C7DB5",
"j#	c #497BB3",
"k#	c #4678B1",
"l#	c #4175AF",
"m#	c #3E71AB",
"n#	c #A59176",
"o#	c #E0C4A0",
"p#	c #DFC4A3",
"q#	c #DABE9A",
"r#	c #D6BA94",
"s#	c #CDA676",
"t#	c #815A2B",
"u#	c #2E3058",
"v#	c #444977",
"w#	c #B4B9C4",
"x#	c #8F949A",
"y#	c #375A82",
"z#	c #4376B0",
"A#	c #4275AF",
"B#	c #4074AE",
"C#	c #3E72AC",
"D#	c #3E6FA9",
"E#	c #3D6CA4",
"F#	c #3C699F",
"G#	c #E2C5A1",
"H#	c #D8B58C",
"I#	c #CA9F68",
"J#	c #AC8758",
"K#	c #A78252",
"L#	c #A78253",
"M#	c #A37B4B",
"N#	c #BC8849",
"O#	c #AC712E",
"P#	c #202040",
"Q#	c #3A3B6D",
"R#	c #6E718E",
"S#	c #8697AD",
"T#	c #81A0C4",
"U#	c #648AB7",
"V#	c #4E79AC",
"W#	c #4672A6",
"X#	c #3E6BA0",
"Y#	c #446EA0",
"Z#	c #4C71A1",
"`#	c #5E7EA6",
" $	c #E3C6A2",
".$	c #D5AE7E",
"+$	c #B08D5F",
"@$	c #D5B284",
"#$	c #CFAB7C",
"$$	c #CFAC7B",
"%$	c #CBA471",
"&$	c #BC8746",
"*$	c #AA6F2B",
"=$	c #2A2B50",
"-$	c #505985",
";$	c #6D7FA6",
">$	c #7E93B6",
",$	c #869BBB",
"'$	c #8AA1BE",
")$	c #8297B6",
"!$	c #798CAC",
"~$	c #66759A",
"{$	c #E1C4A0",
"]$	c #D0A674",
"^$	c #C79B64",
"/$	c #AA8455",
"($	c #A47E4E",
"_$	c #A07744",
":$	c #BA8442",
"<$	c #1D1D37",
"[$	c #2F3057",
"}$	c #353765",
"|$	c #363969",
"1$	c #39396A",
"2$	c #363768",
"3$	c #343664",
"4$	c #2E2F56",
"5$	c #E1C29C",
"6$	c #CEA470",
"7$	c #AD8D64",
"8$	c #D2B289",
"9$	c #CDAC83",
"0$	c #CEAD83",
"a$	c #CCA77B",
"b$	c #B8803E",
"c$	c #AD7332",
"d$	c #E0C29E",
"e$	c #D4AC79",
"f$	c #CDA66E",
"g$	c #AF8D5E",
"h$	c #AB8758",
"i$	c #AB8858",
"j$	c #A8814C",
"k$	c #B47E3E",
"l$	c #D0A874",
"m$	c #C6965D",
"n$	c #BE8D50",
"o$	c #BA894B",
"p$	c #BD8C4E",
"q$	c #BC8A4C",
"r$	c #BA8647",
"s$	c #A47136",
"                                                                ",
"                                                                ",
"                          . + @ # $ % &                         ",
"                    * = - ; > , ' ) ! ~ { ] ^                   ",
"                  / ( _ : < [ [ [ } | 1 2 3 4 5                 ",
"              6 7 8 9 0 a b c d e f g h i j k l m ^             ",
"              n o p q r s t u v w x y z A B C D E F             ",
"            G H I J K L M N O P Q R S T U V W X Y Z `           ",
"           ., [ [ ..+.@.#.$.$.%.&.*.=.-.;.[ [ ;.>.,.'.).        ",
"          !.~.[ [ [ {.].^./././.(._.:.<.[.}.[ [ |.1.2.3.        ",
"        4.H [ [ c 5.6.7.8.8.8.8.9.0.a.b.c.d.e.f.g.h.i.j.k.      ",
"        l.~.[ [ m.n.o.p.q.q.q.q.r.s.t.u.v.w.x.y.z.A.B.C.D.      ",
"      E.F.;.G.H.I.J.K.o.o.o.o.L.M.s.N.[ [ O.P.Q.R.h.S.T.U.V.    ",
"      W.X.Y.Z.`. +.+++@+@+@+#+$+%+&+[ [ [ [ [ [ *+=+-+;+>+,+    ",
"      '+)+!+~+{+]+^+/+(+_+_+:+<+[+}+[ [ [ [ [ ;.+.|+1+2+3+4+    ",
"      5+6+7+8+9+0+a+b+c+d+e+f+g+h+[ [ [ [ [ [ X i+j+k+l+m+n+    ",
"      o+p+q+r+s+t+u+v+w+x+a+y+z+A+B+[ [ [ [ ;.C+1.D+E+F+G+4+    ",
"      & H+I+J+K+[ [ L+M+N+N+O+P+Q+R+S+T+U+V+W+X+Y+Z+`+ @.@+@    ",
"      @@#@$@%@&@[ [ [ *@=@-@;@>@,@'@)@!@~@{@]@^@/@(@_@:@<@[@    ",
"        }@|@1@2@[ [ [ [ [ 3@4@5@6@%@7@8@9@0@a@b@c@B.B.d@e@f@    ",
"        $ g@h@i@j@[ [ [ [ k@l@m@7@~@n@o@p@q@r@s@t@u@v@w@x@^@    ",
"          y@z@A@B@|.C@V+j@D@E@F@G@H@I@J@K@L@M@N@O@P@Q@R@S@T@U@  ",
"          V@W@X@Y@Z@A.i+]@`@ #.#+#@###$#%#&#*#=#-#;#>#,#'#)#U@  ",
"            !#~#{#]#B.i.^#/#(#_#:#<#[#}#|#1#2#3#4#5#5#6#7#8#9#  ",
"            0#a#b#c#d#e#f#g#h#i#j#k#l#m#U@n#o#p#p#q#q#q#r#s#t#U@",
"              u#v#w#1+x#y#z#A#B#C#D#E#F#U@G#H#I#J#K#K#L#M#N#O#U@",
"                P#Q#R#S#T#U#V#W#X#Y#Z#`#U@ $.$+$@$#$#$$$%$&$*$U@",
"                    =$Q#-$;$>$,$'$)$!$~$U@{$]$^$/$($($($_$:$O#U@",
"                        <$[$}$|$1$2$3$4$U@5$6$7$8$9$9$0$a$b$c$U@",
"                                        U@d$e$f$g$h$h$i$j$&$k$U@",
"                                        U@l$m$n$n$o$o$p$q$r$s$U@",
"                                          U@U@U@U@U@U@U@U@U@U@  "};
